<mxfile host="65bd71144e">
    <diagram id="zBbb_w2fufU70cdOGtND" name="1 oldal">
        <mxGraphModel dx="483" dy="1220" grid="1" gridSize="10" guides="1" tooltips="1" connect="1" arrows="1" fold="1" page="0" pageScale="1" pageWidth="660" pageHeight="610" background="none" math="0" shadow="0">
            <root>
                <mxCell id="0"/>
                <mxCell id="1" parent="0"/>
                <mxCell id="5927" value="" style="rounded=0;whiteSpace=wrap;html=1;fillColor=#5E5B61;fontColor=#FFFFFF;strokeColor=none;spacing=0;" parent="1" vertex="1">
                    <mxGeometry y="-20" width="740" height="340" as="geometry"/>
                </mxCell>
                <mxCell id="5928" value="Explicit Memory Management" style="text;strokeColor=none;fillColor=none;align=center;verticalAlign=middle;rounded=0;fontFamily=Helvetica;fontSize=17;fontColor=#FFFFFF;" parent="1" vertex="1">
                    <mxGeometry x="30" y="-10" width="330" height="30" as="geometry"/>
                </mxCell>
                <mxCell id="UvHuP5o6jSuoLTm0AUZA-5953" value="" style="group" parent="1" vertex="1" connectable="0">
                    <mxGeometry x="30" y="40" width="140" height="120" as="geometry"/>
                </mxCell>
                <mxCell id="LV0FwBpydXXZrUbya0PG-5966" style="edgeStyle=orthogonalEdgeStyle;rounded=0;orthogonalLoop=1;jettySize=auto;html=1;exitX=0.5;exitY=1;exitDx=0;exitDy=0;" parent="UvHuP5o6jSuoLTm0AUZA-5953" edge="1">
                    <mxGeometry relative="1" as="geometry">
                        <mxPoint x="70" y="100" as="targetPoint"/>
                        <mxPoint x="70" y="100" as="sourcePoint"/>
                    </mxGeometry>
                </mxCell>
                <mxCell id="LV0FwBpydXXZrUbya0PG-6775" value="" style="rounded=0;whiteSpace=wrap;html=1;strokeColor=none;fillColor=#9C2A44;" parent="UvHuP5o6jSuoLTm0AUZA-5953" vertex="1">
                    <mxGeometry x="6" y="7" width="130" height="85" as="geometry"/>
                </mxCell>
                <mxCell id="LV0FwBpydXXZrUbya0PG-6733" value="" style="shape=table;startSize=0;container=1;collapsible=0;childLayout=tableLayout;strokeColor=#9C2A44;fillColor=#C23555;" parent="UvHuP5o6jSuoLTm0AUZA-5953" vertex="1">
                    <mxGeometry x="10" y="33" width="120" height="50" as="geometry"/>
                </mxCell>
                <mxCell id="LV0FwBpydXXZrUbya0PG-6734" value="" style="shape=tableRow;horizontal=0;startSize=0;swimlaneHead=0;swimlaneBody=0;strokeColor=inherit;top=0;left=0;bottom=0;right=0;collapsible=0;dropTarget=0;fillColor=none;points=[[0,0.5],[1,0.5]];portConstraint=eastwest;" parent="LV0FwBpydXXZrUbya0PG-6733" vertex="1">
                    <mxGeometry width="120" height="25" as="geometry"/>
                </mxCell>
                <mxCell id="LV0FwBpydXXZrUbya0PG-6735" value="" style="shape=partialRectangle;html=1;whiteSpace=wrap;connectable=0;strokeColor=inherit;overflow=hidden;fillColor=none;top=0;left=0;bottom=0;right=0;pointerEvents=1;" parent="LV0FwBpydXXZrUbya0PG-6734" vertex="1">
                    <mxGeometry width="30" height="25" as="geometry">
                        <mxRectangle width="30" height="25" as="alternateBounds"/>
                    </mxGeometry>
                </mxCell>
                <mxCell id="LV0FwBpydXXZrUbya0PG-6736" value="" style="shape=partialRectangle;html=1;whiteSpace=wrap;connectable=0;strokeColor=inherit;overflow=hidden;fillColor=none;top=0;left=0;bottom=0;right=0;pointerEvents=1;" parent="LV0FwBpydXXZrUbya0PG-6734" vertex="1">
                    <mxGeometry x="30" width="30" height="25" as="geometry">
                        <mxRectangle width="30" height="25" as="alternateBounds"/>
                    </mxGeometry>
                </mxCell>
                <mxCell id="LV0FwBpydXXZrUbya0PG-6737" value="" style="shape=partialRectangle;html=1;whiteSpace=wrap;connectable=0;strokeColor=inherit;overflow=hidden;fillColor=none;top=0;left=0;bottom=0;right=0;pointerEvents=1;" parent="LV0FwBpydXXZrUbya0PG-6734" vertex="1">
                    <mxGeometry x="60" width="30" height="25" as="geometry">
                        <mxRectangle width="30" height="25" as="alternateBounds"/>
                    </mxGeometry>
                </mxCell>
                <mxCell id="LV0FwBpydXXZrUbya0PG-6738" value="" style="shape=partialRectangle;html=1;whiteSpace=wrap;connectable=0;strokeColor=inherit;overflow=hidden;fillColor=none;top=0;left=0;bottom=0;right=0;pointerEvents=1;" parent="LV0FwBpydXXZrUbya0PG-6734" vertex="1">
                    <mxGeometry x="90" width="30" height="25" as="geometry">
                        <mxRectangle width="30" height="25" as="alternateBounds"/>
                    </mxGeometry>
                </mxCell>
                <mxCell id="LV0FwBpydXXZrUbya0PG-6739" value="" style="shape=tableRow;horizontal=0;startSize=0;swimlaneHead=0;swimlaneBody=0;strokeColor=inherit;top=0;left=0;bottom=0;right=0;collapsible=0;dropTarget=0;fillColor=none;points=[[0,0.5],[1,0.5]];portConstraint=eastwest;" parent="LV0FwBpydXXZrUbya0PG-6733" vertex="1">
                    <mxGeometry y="25" width="120" height="25" as="geometry"/>
                </mxCell>
                <mxCell id="LV0FwBpydXXZrUbya0PG-6740" value="" style="shape=partialRectangle;html=1;whiteSpace=wrap;connectable=0;strokeColor=inherit;overflow=hidden;fillColor=none;top=0;left=0;bottom=0;right=0;pointerEvents=1;" parent="LV0FwBpydXXZrUbya0PG-6739" vertex="1">
                    <mxGeometry width="30" height="25" as="geometry">
                        <mxRectangle width="30" height="25" as="alternateBounds"/>
                    </mxGeometry>
                </mxCell>
                <mxCell id="LV0FwBpydXXZrUbya0PG-6741" value="" style="shape=partialRectangle;html=1;whiteSpace=wrap;connectable=0;strokeColor=inherit;overflow=hidden;fillColor=none;top=0;left=0;bottom=0;right=0;pointerEvents=1;" parent="LV0FwBpydXXZrUbya0PG-6739" vertex="1">
                    <mxGeometry x="30" width="30" height="25" as="geometry">
                        <mxRectangle width="30" height="25" as="alternateBounds"/>
                    </mxGeometry>
                </mxCell>
                <mxCell id="LV0FwBpydXXZrUbya0PG-6742" value="" style="shape=partialRectangle;html=1;whiteSpace=wrap;connectable=0;strokeColor=inherit;overflow=hidden;fillColor=none;top=0;left=0;bottom=0;right=0;pointerEvents=1;" parent="LV0FwBpydXXZrUbya0PG-6739" vertex="1">
                    <mxGeometry x="60" width="30" height="25" as="geometry">
                        <mxRectangle width="30" height="25" as="alternateBounds"/>
                    </mxGeometry>
                </mxCell>
                <mxCell id="LV0FwBpydXXZrUbya0PG-6743" value="" style="shape=partialRectangle;html=1;whiteSpace=wrap;connectable=0;strokeColor=inherit;overflow=hidden;fillColor=none;top=0;left=0;bottom=0;right=0;pointerEvents=1;" parent="LV0FwBpydXXZrUbya0PG-6739" vertex="1">
                    <mxGeometry x="90" width="30" height="25" as="geometry">
                        <mxRectangle width="30" height="25" as="alternateBounds"/>
                    </mxGeometry>
                </mxCell>
                <mxCell id="UvHuP5o6jSuoLTm0AUZA-5949" value="&lt;font face=&quot;Helvetica&quot;&gt;CPU cores&lt;br&gt;&lt;/font&gt;" style="text;html=1;strokeColor=none;fillColor=none;align=center;verticalAlign=middle;whiteSpace=wrap;rounded=0;fontSize=17;fontColor=#FFFFFF;" parent="UvHuP5o6jSuoLTm0AUZA-5953" vertex="1">
                    <mxGeometry x="11" y="34" width="119" height="48" as="geometry"/>
                </mxCell>
                <mxCell id="LV0FwBpydXXZrUbya0PG-5967" value="&lt;font face=&quot;Helvetica&quot;&gt;CPU&lt;br&gt;&lt;/font&gt;" style="text;html=1;strokeColor=none;fillColor=none;align=center;verticalAlign=middle;whiteSpace=wrap;rounded=0;fontSize=17;fontColor=#FFFFFF;" parent="UvHuP5o6jSuoLTm0AUZA-5953" vertex="1">
                    <mxGeometry y="7" width="135" height="27" as="geometry"/>
                </mxCell>
                <mxCell id="UvHuP5o6jSuoLTm0AUZA-5985" value="" style="endArrow=classic;startArrow=classic;html=1;rounded=0;exitX=0.5;exitY=1;exitDx=0;exitDy=0;strokeWidth=2;fontColor=#FFFFFF;" parent="1" edge="1" target="UvHuP5o6jSuoLTm0AUZA-5951" source="LV0FwBpydXXZrUbya0PG-6775">
                    <mxGeometry width="50" height="50" relative="1" as="geometry">
                        <mxPoint x="100.5" y="140" as="sourcePoint"/>
                        <mxPoint x="100" y="170" as="targetPoint"/>
                    </mxGeometry>
                </mxCell>
                <mxCell id="UvHuP5o6jSuoLTm0AUZA-5959" value="" style="group" parent="1" vertex="1" connectable="0">
                    <mxGeometry x="224" y="169" width="130" height="120" as="geometry"/>
                </mxCell>
                <mxCell id="UvHuP5o6jSuoLTm0AUZA-5960" value="" style="rounded=0;whiteSpace=wrap;html=1;fillColor=#C23555;fontColor=#FFFFFF;strokeColor=none;" parent="UvHuP5o6jSuoLTm0AUZA-5959" vertex="1">
                    <mxGeometry width="130" height="120" as="geometry"/>
                </mxCell>
                <mxCell id="UvHuP5o6jSuoLTm0AUZA-5961" value="&lt;div&gt;GPU Memory&lt;br&gt;(HBM)&lt;/div&gt;" style="text;html=1;strokeColor=none;fillColor=none;align=center;verticalAlign=middle;whiteSpace=wrap;rounded=0;fontSize=17;fontColor=#FFFFFF;" parent="UvHuP5o6jSuoLTm0AUZA-5959" vertex="1">
                    <mxGeometry width="130" height="120" as="geometry"/>
                </mxCell>
                <mxCell id="LV0FwBpydXXZrUbya0PG-5946" value="Unified Memory Management" style="text;strokeColor=none;fillColor=none;align=center;verticalAlign=middle;rounded=0;fontFamily=Helvetica;fontSize=17;fontColor=#FFFFFF;" parent="1" vertex="1">
                    <mxGeometry x="420" y="-10" width="290" height="30" as="geometry"/>
                </mxCell>
                <mxCell id="LV0FwBpydXXZrUbya0PG-5947" value="" style="group" parent="1" vertex="1" connectable="0">
                    <mxGeometry x="420" y="169" width="280" height="120" as="geometry"/>
                </mxCell>
                <mxCell id="LV0FwBpydXXZrUbya0PG-5948" value="" style="rounded=0;whiteSpace=wrap;html=1;fillColor=#4F1623;fontColor=#FFFFFF;strokeColor=none;" parent="LV0FwBpydXXZrUbya0PG-5947" vertex="1">
                    <mxGeometry y="-0.4615384615384615" width="280" height="119.99999999999999" as="geometry"/>
                </mxCell>
                <mxCell id="6132" value="Unified Memory" style="text;html=1;strokeColor=none;fillColor=none;align=center;verticalAlign=middle;whiteSpace=wrap;rounded=0;fontSize=17;fontColor=#FFFFFF;" vertex="1" parent="LV0FwBpydXXZrUbya0PG-5947">
                    <mxGeometry y="-0.46" width="280" height="120" as="geometry"/>
                </mxCell>
                <mxCell id="UvHuP5o6jSuoLTm0AUZA-5952" value="" style="group;fillColor=#9C2A44;" parent="1" vertex="1" connectable="0">
                    <mxGeometry x="36" y="169" width="130" height="120" as="geometry"/>
                </mxCell>
                <mxCell id="UvHuP5o6jSuoLTm0AUZA-5950" value="" style="rounded=0;whiteSpace=wrap;html=1;fillColor=#9C2A44;fontColor=#FFFFFF;strokeColor=none;" parent="UvHuP5o6jSuoLTm0AUZA-5952" vertex="1">
                    <mxGeometry width="130" height="120" as="geometry"/>
                </mxCell>
                <mxCell id="UvHuP5o6jSuoLTm0AUZA-5951" value="CPU Memory (RAM)" style="text;html=1;strokeColor=none;fillColor=none;align=center;verticalAlign=middle;whiteSpace=wrap;rounded=0;fontSize=17;fontColor=#FFFFFF;" parent="UvHuP5o6jSuoLTm0AUZA-5952" vertex="1">
                    <mxGeometry width="130" height="120" as="geometry"/>
                </mxCell>
                <mxCell id="LV0FwBpydXXZrUbya0PG-5968" value="" style="endArrow=classic;startArrow=classic;html=1;rounded=0;entryX=0.5;entryY=0;entryDx=0;entryDy=0;strokeWidth=2;strokeColor=#ffffff;exitX=0.5;exitY=1;exitDx=0;exitDy=0;fontColor=#FFFFFF;" parent="1" source="LV0FwBpydXXZrUbya0PG-6778" target="UvHuP5o6jSuoLTm0AUZA-5960" edge="1">
                    <mxGeometry width="50" height="50" relative="1" as="geometry">
                        <mxPoint x="290" y="130" as="sourcePoint"/>
                        <mxPoint x="289.5" y="160" as="targetPoint"/>
                    </mxGeometry>
                </mxCell>
                <mxCell id="LV0FwBpydXXZrUbya0PG-6778" value="" style="rounded=0;whiteSpace=wrap;html=1;strokeColor=none;fillColor=#9C2A44;" parent="1" vertex="1">
                    <mxGeometry x="224" y="46" width="130" height="85" as="geometry"/>
                </mxCell>
                <mxCell id="LV0FwBpydXXZrUbya0PG-6564" value="" style="shape=table;startSize=0;container=1;collapsible=0;childLayout=tableLayout;fillColor=#C23555;strokeColor=#9C2A44;" parent="1" vertex="1">
                    <mxGeometry x="229" y="73" width="120" height="50" as="geometry"/>
                </mxCell>
                <mxCell id="LV0FwBpydXXZrUbya0PG-6565" value="" style="shape=tableRow;horizontal=0;startSize=0;swimlaneHead=0;swimlaneBody=0;strokeColor=inherit;top=0;left=0;bottom=0;right=0;collapsible=0;dropTarget=0;fillColor=none;points=[[0,0.5],[1,0.5]];portConstraint=eastwest;" parent="LV0FwBpydXXZrUbya0PG-6564" vertex="1">
                    <mxGeometry width="120" height="6" as="geometry"/>
                </mxCell>
                <mxCell id="LV0FwBpydXXZrUbya0PG-6566" value="" style="shape=partialRectangle;html=1;whiteSpace=wrap;connectable=0;strokeColor=inherit;overflow=hidden;fillColor=none;top=0;left=0;bottom=0;right=0;pointerEvents=1;" parent="LV0FwBpydXXZrUbya0PG-6565" vertex="1">
                    <mxGeometry width="6" height="6" as="geometry">
                        <mxRectangle width="6" height="6" as="alternateBounds"/>
                    </mxGeometry>
                </mxCell>
                <mxCell id="LV0FwBpydXXZrUbya0PG-6567" value="" style="shape=partialRectangle;html=1;whiteSpace=wrap;connectable=0;strokeColor=inherit;overflow=hidden;fillColor=none;top=0;left=0;bottom=0;right=0;pointerEvents=1;" parent="LV0FwBpydXXZrUbya0PG-6565" vertex="1">
                    <mxGeometry x="6" width="6" height="6" as="geometry">
                        <mxRectangle width="6" height="6" as="alternateBounds"/>
                    </mxGeometry>
                </mxCell>
                <mxCell id="LV0FwBpydXXZrUbya0PG-6568" value="" style="shape=partialRectangle;html=1;whiteSpace=wrap;connectable=0;strokeColor=inherit;overflow=hidden;fillColor=none;top=0;left=0;bottom=0;right=0;pointerEvents=1;" parent="LV0FwBpydXXZrUbya0PG-6565" vertex="1">
                    <mxGeometry x="12" width="6" height="6" as="geometry">
                        <mxRectangle width="6" height="6" as="alternateBounds"/>
                    </mxGeometry>
                </mxCell>
                <mxCell id="LV0FwBpydXXZrUbya0PG-6569" value="" style="shape=partialRectangle;html=1;whiteSpace=wrap;connectable=0;strokeColor=inherit;overflow=hidden;fillColor=none;top=0;left=0;bottom=0;right=0;pointerEvents=1;" parent="LV0FwBpydXXZrUbya0PG-6565" vertex="1">
                    <mxGeometry x="18" width="6" height="6" as="geometry">
                        <mxRectangle width="6" height="6" as="alternateBounds"/>
                    </mxGeometry>
                </mxCell>
                <mxCell id="LV0FwBpydXXZrUbya0PG-6570" value="" style="shape=partialRectangle;html=1;whiteSpace=wrap;connectable=0;strokeColor=inherit;overflow=hidden;fillColor=none;top=0;left=0;bottom=0;right=0;pointerEvents=1;" parent="LV0FwBpydXXZrUbya0PG-6565" vertex="1">
                    <mxGeometry x="24" width="6" height="6" as="geometry">
                        <mxRectangle width="6" height="6" as="alternateBounds"/>
                    </mxGeometry>
                </mxCell>
                <mxCell id="LV0FwBpydXXZrUbya0PG-6571" value="" style="shape=partialRectangle;html=1;whiteSpace=wrap;connectable=0;strokeColor=inherit;overflow=hidden;fillColor=none;top=0;left=0;bottom=0;right=0;pointerEvents=1;" parent="LV0FwBpydXXZrUbya0PG-6565" vertex="1">
                    <mxGeometry x="30" width="6" height="6" as="geometry">
                        <mxRectangle width="6" height="6" as="alternateBounds"/>
                    </mxGeometry>
                </mxCell>
                <mxCell id="LV0FwBpydXXZrUbya0PG-6572" value="" style="shape=partialRectangle;html=1;whiteSpace=wrap;connectable=0;strokeColor=inherit;overflow=hidden;fillColor=none;top=0;left=0;bottom=0;right=0;pointerEvents=1;" parent="LV0FwBpydXXZrUbya0PG-6565" vertex="1">
                    <mxGeometry x="36" width="6" height="6" as="geometry">
                        <mxRectangle width="6" height="6" as="alternateBounds"/>
                    </mxGeometry>
                </mxCell>
                <mxCell id="LV0FwBpydXXZrUbya0PG-6573" value="" style="shape=partialRectangle;html=1;whiteSpace=wrap;connectable=0;strokeColor=inherit;overflow=hidden;fillColor=none;top=0;left=0;bottom=0;right=0;pointerEvents=1;" parent="LV0FwBpydXXZrUbya0PG-6565" vertex="1">
                    <mxGeometry x="42" width="6" height="6" as="geometry">
                        <mxRectangle width="6" height="6" as="alternateBounds"/>
                    </mxGeometry>
                </mxCell>
                <mxCell id="LV0FwBpydXXZrUbya0PG-6574" value="" style="shape=partialRectangle;html=1;whiteSpace=wrap;connectable=0;strokeColor=inherit;overflow=hidden;fillColor=none;top=0;left=0;bottom=0;right=0;pointerEvents=1;" parent="LV0FwBpydXXZrUbya0PG-6565" vertex="1">
                    <mxGeometry x="48" width="6" height="6" as="geometry">
                        <mxRectangle width="6" height="6" as="alternateBounds"/>
                    </mxGeometry>
                </mxCell>
                <mxCell id="LV0FwBpydXXZrUbya0PG-6575" value="" style="shape=partialRectangle;html=1;whiteSpace=wrap;connectable=0;strokeColor=inherit;overflow=hidden;fillColor=none;top=0;left=0;bottom=0;right=0;pointerEvents=1;" parent="LV0FwBpydXXZrUbya0PG-6565" vertex="1">
                    <mxGeometry x="54" width="6" height="6" as="geometry">
                        <mxRectangle width="6" height="6" as="alternateBounds"/>
                    </mxGeometry>
                </mxCell>
                <mxCell id="LV0FwBpydXXZrUbya0PG-6576" value="" style="shape=partialRectangle;html=1;whiteSpace=wrap;connectable=0;strokeColor=inherit;overflow=hidden;fillColor=none;top=0;left=0;bottom=0;right=0;pointerEvents=1;" parent="LV0FwBpydXXZrUbya0PG-6565" vertex="1">
                    <mxGeometry x="60" width="6" height="6" as="geometry">
                        <mxRectangle width="6" height="6" as="alternateBounds"/>
                    </mxGeometry>
                </mxCell>
                <mxCell id="LV0FwBpydXXZrUbya0PG-6577" value="" style="shape=partialRectangle;html=1;whiteSpace=wrap;connectable=0;strokeColor=inherit;overflow=hidden;fillColor=none;top=0;left=0;bottom=0;right=0;pointerEvents=1;" parent="LV0FwBpydXXZrUbya0PG-6565" vertex="1">
                    <mxGeometry x="66" width="6" height="6" as="geometry">
                        <mxRectangle width="6" height="6" as="alternateBounds"/>
                    </mxGeometry>
                </mxCell>
                <mxCell id="LV0FwBpydXXZrUbya0PG-6578" value="" style="shape=partialRectangle;html=1;whiteSpace=wrap;connectable=0;strokeColor=inherit;overflow=hidden;fillColor=none;top=0;left=0;bottom=0;right=0;pointerEvents=1;" parent="LV0FwBpydXXZrUbya0PG-6565" vertex="1">
                    <mxGeometry x="72" width="6" height="6" as="geometry">
                        <mxRectangle width="6" height="6" as="alternateBounds"/>
                    </mxGeometry>
                </mxCell>
                <mxCell id="LV0FwBpydXXZrUbya0PG-6579" value="" style="shape=partialRectangle;html=1;whiteSpace=wrap;connectable=0;strokeColor=inherit;overflow=hidden;fillColor=none;top=0;left=0;bottom=0;right=0;pointerEvents=1;" parent="LV0FwBpydXXZrUbya0PG-6565" vertex="1">
                    <mxGeometry x="78" width="6" height="6" as="geometry">
                        <mxRectangle width="6" height="6" as="alternateBounds"/>
                    </mxGeometry>
                </mxCell>
                <mxCell id="LV0FwBpydXXZrUbya0PG-6580" value="" style="shape=partialRectangle;html=1;whiteSpace=wrap;connectable=0;strokeColor=inherit;overflow=hidden;fillColor=none;top=0;left=0;bottom=0;right=0;pointerEvents=1;" parent="LV0FwBpydXXZrUbya0PG-6565" vertex="1">
                    <mxGeometry x="84" width="6" height="6" as="geometry">
                        <mxRectangle width="6" height="6" as="alternateBounds"/>
                    </mxGeometry>
                </mxCell>
                <mxCell id="LV0FwBpydXXZrUbya0PG-6581" value="" style="shape=partialRectangle;html=1;whiteSpace=wrap;connectable=0;strokeColor=inherit;overflow=hidden;fillColor=none;top=0;left=0;bottom=0;right=0;pointerEvents=1;" parent="LV0FwBpydXXZrUbya0PG-6565" vertex="1">
                    <mxGeometry x="90" width="6" height="6" as="geometry">
                        <mxRectangle width="6" height="6" as="alternateBounds"/>
                    </mxGeometry>
                </mxCell>
                <mxCell id="LV0FwBpydXXZrUbya0PG-6582" value="" style="shape=partialRectangle;html=1;whiteSpace=wrap;connectable=0;strokeColor=inherit;overflow=hidden;fillColor=none;top=0;left=0;bottom=0;right=0;pointerEvents=1;" parent="LV0FwBpydXXZrUbya0PG-6565" vertex="1">
                    <mxGeometry x="96" width="6" height="6" as="geometry">
                        <mxRectangle width="6" height="6" as="alternateBounds"/>
                    </mxGeometry>
                </mxCell>
                <mxCell id="LV0FwBpydXXZrUbya0PG-6583" value="" style="shape=partialRectangle;html=1;whiteSpace=wrap;connectable=0;strokeColor=inherit;overflow=hidden;fillColor=none;top=0;left=0;bottom=0;right=0;pointerEvents=1;" parent="LV0FwBpydXXZrUbya0PG-6565" vertex="1">
                    <mxGeometry x="102" width="6" height="6" as="geometry">
                        <mxRectangle width="6" height="6" as="alternateBounds"/>
                    </mxGeometry>
                </mxCell>
                <mxCell id="LV0FwBpydXXZrUbya0PG-6584" value="" style="shape=partialRectangle;html=1;whiteSpace=wrap;connectable=0;strokeColor=inherit;overflow=hidden;fillColor=none;top=0;left=0;bottom=0;right=0;pointerEvents=1;" parent="LV0FwBpydXXZrUbya0PG-6565" vertex="1">
                    <mxGeometry x="108" width="6" height="6" as="geometry">
                        <mxRectangle width="6" height="6" as="alternateBounds"/>
                    </mxGeometry>
                </mxCell>
                <mxCell id="LV0FwBpydXXZrUbya0PG-6585" value="" style="shape=partialRectangle;html=1;whiteSpace=wrap;connectable=0;strokeColor=inherit;overflow=hidden;fillColor=none;top=0;left=0;bottom=0;right=0;pointerEvents=1;" parent="LV0FwBpydXXZrUbya0PG-6565" vertex="1">
                    <mxGeometry x="114" width="6" height="6" as="geometry">
                        <mxRectangle width="6" height="6" as="alternateBounds"/>
                    </mxGeometry>
                </mxCell>
                <mxCell id="LV0FwBpydXXZrUbya0PG-6586" value="" style="shape=tableRow;horizontal=0;startSize=0;swimlaneHead=0;swimlaneBody=0;strokeColor=inherit;top=0;left=0;bottom=0;right=0;collapsible=0;dropTarget=0;fillColor=none;points=[[0,0.5],[1,0.5]];portConstraint=eastwest;" parent="LV0FwBpydXXZrUbya0PG-6564" vertex="1">
                    <mxGeometry y="6" width="120" height="7" as="geometry"/>
                </mxCell>
                <mxCell id="LV0FwBpydXXZrUbya0PG-6587" value="" style="shape=partialRectangle;html=1;whiteSpace=wrap;connectable=0;strokeColor=inherit;overflow=hidden;fillColor=none;top=0;left=0;bottom=0;right=0;pointerEvents=1;" parent="LV0FwBpydXXZrUbya0PG-6586" vertex="1">
                    <mxGeometry width="6" height="7" as="geometry">
                        <mxRectangle width="6" height="7" as="alternateBounds"/>
                    </mxGeometry>
                </mxCell>
                <mxCell id="LV0FwBpydXXZrUbya0PG-6588" value="" style="shape=partialRectangle;html=1;whiteSpace=wrap;connectable=0;strokeColor=inherit;overflow=hidden;fillColor=none;top=0;left=0;bottom=0;right=0;pointerEvents=1;" parent="LV0FwBpydXXZrUbya0PG-6586" vertex="1">
                    <mxGeometry x="6" width="6" height="7" as="geometry">
                        <mxRectangle width="6" height="7" as="alternateBounds"/>
                    </mxGeometry>
                </mxCell>
                <mxCell id="LV0FwBpydXXZrUbya0PG-6589" value="" style="shape=partialRectangle;html=1;whiteSpace=wrap;connectable=0;strokeColor=inherit;overflow=hidden;fillColor=none;top=0;left=0;bottom=0;right=0;pointerEvents=1;" parent="LV0FwBpydXXZrUbya0PG-6586" vertex="1">
                    <mxGeometry x="12" width="6" height="7" as="geometry">
                        <mxRectangle width="6" height="7" as="alternateBounds"/>
                    </mxGeometry>
                </mxCell>
                <mxCell id="LV0FwBpydXXZrUbya0PG-6590" value="" style="shape=partialRectangle;html=1;whiteSpace=wrap;connectable=0;strokeColor=inherit;overflow=hidden;fillColor=none;top=0;left=0;bottom=0;right=0;pointerEvents=1;" parent="LV0FwBpydXXZrUbya0PG-6586" vertex="1">
                    <mxGeometry x="18" width="6" height="7" as="geometry">
                        <mxRectangle width="6" height="7" as="alternateBounds"/>
                    </mxGeometry>
                </mxCell>
                <mxCell id="LV0FwBpydXXZrUbya0PG-6591" value="" style="shape=partialRectangle;html=1;whiteSpace=wrap;connectable=0;strokeColor=inherit;overflow=hidden;fillColor=none;top=0;left=0;bottom=0;right=0;pointerEvents=1;" parent="LV0FwBpydXXZrUbya0PG-6586" vertex="1">
                    <mxGeometry x="24" width="6" height="7" as="geometry">
                        <mxRectangle width="6" height="7" as="alternateBounds"/>
                    </mxGeometry>
                </mxCell>
                <mxCell id="LV0FwBpydXXZrUbya0PG-6592" value="" style="shape=partialRectangle;html=1;whiteSpace=wrap;connectable=0;strokeColor=inherit;overflow=hidden;fillColor=none;top=0;left=0;bottom=0;right=0;pointerEvents=1;" parent="LV0FwBpydXXZrUbya0PG-6586" vertex="1">
                    <mxGeometry x="30" width="6" height="7" as="geometry">
                        <mxRectangle width="6" height="7" as="alternateBounds"/>
                    </mxGeometry>
                </mxCell>
                <mxCell id="LV0FwBpydXXZrUbya0PG-6593" value="" style="shape=partialRectangle;html=1;whiteSpace=wrap;connectable=0;strokeColor=inherit;overflow=hidden;fillColor=none;top=0;left=0;bottom=0;right=0;pointerEvents=1;" parent="LV0FwBpydXXZrUbya0PG-6586" vertex="1">
                    <mxGeometry x="36" width="6" height="7" as="geometry">
                        <mxRectangle width="6" height="7" as="alternateBounds"/>
                    </mxGeometry>
                </mxCell>
                <mxCell id="LV0FwBpydXXZrUbya0PG-6594" value="" style="shape=partialRectangle;html=1;whiteSpace=wrap;connectable=0;strokeColor=inherit;overflow=hidden;fillColor=none;top=0;left=0;bottom=0;right=0;pointerEvents=1;" parent="LV0FwBpydXXZrUbya0PG-6586" vertex="1">
                    <mxGeometry x="42" width="6" height="7" as="geometry">
                        <mxRectangle width="6" height="7" as="alternateBounds"/>
                    </mxGeometry>
                </mxCell>
                <mxCell id="LV0FwBpydXXZrUbya0PG-6595" value="" style="shape=partialRectangle;html=1;whiteSpace=wrap;connectable=0;strokeColor=inherit;overflow=hidden;fillColor=none;top=0;left=0;bottom=0;right=0;pointerEvents=1;" parent="LV0FwBpydXXZrUbya0PG-6586" vertex="1">
                    <mxGeometry x="48" width="6" height="7" as="geometry">
                        <mxRectangle width="6" height="7" as="alternateBounds"/>
                    </mxGeometry>
                </mxCell>
                <mxCell id="LV0FwBpydXXZrUbya0PG-6596" value="" style="shape=partialRectangle;html=1;whiteSpace=wrap;connectable=0;strokeColor=inherit;overflow=hidden;fillColor=none;top=0;left=0;bottom=0;right=0;pointerEvents=1;" parent="LV0FwBpydXXZrUbya0PG-6586" vertex="1">
                    <mxGeometry x="54" width="6" height="7" as="geometry">
                        <mxRectangle width="6" height="7" as="alternateBounds"/>
                    </mxGeometry>
                </mxCell>
                <mxCell id="LV0FwBpydXXZrUbya0PG-6597" value="" style="shape=partialRectangle;html=1;whiteSpace=wrap;connectable=0;strokeColor=inherit;overflow=hidden;fillColor=none;top=0;left=0;bottom=0;right=0;pointerEvents=1;" parent="LV0FwBpydXXZrUbya0PG-6586" vertex="1">
                    <mxGeometry x="60" width="6" height="7" as="geometry">
                        <mxRectangle width="6" height="7" as="alternateBounds"/>
                    </mxGeometry>
                </mxCell>
                <mxCell id="LV0FwBpydXXZrUbya0PG-6598" value="" style="shape=partialRectangle;html=1;whiteSpace=wrap;connectable=0;strokeColor=inherit;overflow=hidden;fillColor=none;top=0;left=0;bottom=0;right=0;pointerEvents=1;" parent="LV0FwBpydXXZrUbya0PG-6586" vertex="1">
                    <mxGeometry x="66" width="6" height="7" as="geometry">
                        <mxRectangle width="6" height="7" as="alternateBounds"/>
                    </mxGeometry>
                </mxCell>
                <mxCell id="LV0FwBpydXXZrUbya0PG-6599" value="" style="shape=partialRectangle;html=1;whiteSpace=wrap;connectable=0;strokeColor=inherit;overflow=hidden;fillColor=none;top=0;left=0;bottom=0;right=0;pointerEvents=1;" parent="LV0FwBpydXXZrUbya0PG-6586" vertex="1">
                    <mxGeometry x="72" width="6" height="7" as="geometry">
                        <mxRectangle width="6" height="7" as="alternateBounds"/>
                    </mxGeometry>
                </mxCell>
                <mxCell id="LV0FwBpydXXZrUbya0PG-6600" value="" style="shape=partialRectangle;html=1;whiteSpace=wrap;connectable=0;strokeColor=inherit;overflow=hidden;fillColor=none;top=0;left=0;bottom=0;right=0;pointerEvents=1;" parent="LV0FwBpydXXZrUbya0PG-6586" vertex="1">
                    <mxGeometry x="78" width="6" height="7" as="geometry">
                        <mxRectangle width="6" height="7" as="alternateBounds"/>
                    </mxGeometry>
                </mxCell>
                <mxCell id="LV0FwBpydXXZrUbya0PG-6601" value="" style="shape=partialRectangle;html=1;whiteSpace=wrap;connectable=0;strokeColor=inherit;overflow=hidden;fillColor=none;top=0;left=0;bottom=0;right=0;pointerEvents=1;" parent="LV0FwBpydXXZrUbya0PG-6586" vertex="1">
                    <mxGeometry x="84" width="6" height="7" as="geometry">
                        <mxRectangle width="6" height="7" as="alternateBounds"/>
                    </mxGeometry>
                </mxCell>
                <mxCell id="LV0FwBpydXXZrUbya0PG-6602" value="" style="shape=partialRectangle;html=1;whiteSpace=wrap;connectable=0;strokeColor=inherit;overflow=hidden;fillColor=none;top=0;left=0;bottom=0;right=0;pointerEvents=1;" parent="LV0FwBpydXXZrUbya0PG-6586" vertex="1">
                    <mxGeometry x="90" width="6" height="7" as="geometry">
                        <mxRectangle width="6" height="7" as="alternateBounds"/>
                    </mxGeometry>
                </mxCell>
                <mxCell id="LV0FwBpydXXZrUbya0PG-6603" value="" style="shape=partialRectangle;html=1;whiteSpace=wrap;connectable=0;strokeColor=inherit;overflow=hidden;fillColor=none;top=0;left=0;bottom=0;right=0;pointerEvents=1;" parent="LV0FwBpydXXZrUbya0PG-6586" vertex="1">
                    <mxGeometry x="96" width="6" height="7" as="geometry">
                        <mxRectangle width="6" height="7" as="alternateBounds"/>
                    </mxGeometry>
                </mxCell>
                <mxCell id="LV0FwBpydXXZrUbya0PG-6604" value="" style="shape=partialRectangle;html=1;whiteSpace=wrap;connectable=0;strokeColor=inherit;overflow=hidden;fillColor=none;top=0;left=0;bottom=0;right=0;pointerEvents=1;" parent="LV0FwBpydXXZrUbya0PG-6586" vertex="1">
                    <mxGeometry x="102" width="6" height="7" as="geometry">
                        <mxRectangle width="6" height="7" as="alternateBounds"/>
                    </mxGeometry>
                </mxCell>
                <mxCell id="LV0FwBpydXXZrUbya0PG-6605" value="" style="shape=partialRectangle;html=1;whiteSpace=wrap;connectable=0;strokeColor=inherit;overflow=hidden;fillColor=none;top=0;left=0;bottom=0;right=0;pointerEvents=1;" parent="LV0FwBpydXXZrUbya0PG-6586" vertex="1">
                    <mxGeometry x="108" width="6" height="7" as="geometry">
                        <mxRectangle width="6" height="7" as="alternateBounds"/>
                    </mxGeometry>
                </mxCell>
                <mxCell id="LV0FwBpydXXZrUbya0PG-6606" value="" style="shape=partialRectangle;html=1;whiteSpace=wrap;connectable=0;strokeColor=inherit;overflow=hidden;fillColor=none;top=0;left=0;bottom=0;right=0;pointerEvents=1;" parent="LV0FwBpydXXZrUbya0PG-6586" vertex="1">
                    <mxGeometry x="114" width="6" height="7" as="geometry">
                        <mxRectangle width="6" height="7" as="alternateBounds"/>
                    </mxGeometry>
                </mxCell>
                <mxCell id="LV0FwBpydXXZrUbya0PG-6607" value="" style="shape=tableRow;horizontal=0;startSize=0;swimlaneHead=0;swimlaneBody=0;strokeColor=inherit;top=0;left=0;bottom=0;right=0;collapsible=0;dropTarget=0;fillColor=none;points=[[0,0.5],[1,0.5]];portConstraint=eastwest;" parent="LV0FwBpydXXZrUbya0PG-6564" vertex="1">
                    <mxGeometry y="13" width="120" height="6" as="geometry"/>
                </mxCell>
                <mxCell id="LV0FwBpydXXZrUbya0PG-6608" value="" style="shape=partialRectangle;html=1;whiteSpace=wrap;connectable=0;strokeColor=inherit;overflow=hidden;fillColor=none;top=0;left=0;bottom=0;right=0;pointerEvents=1;" parent="LV0FwBpydXXZrUbya0PG-6607" vertex="1">
                    <mxGeometry width="6" height="6" as="geometry">
                        <mxRectangle width="6" height="6" as="alternateBounds"/>
                    </mxGeometry>
                </mxCell>
                <mxCell id="LV0FwBpydXXZrUbya0PG-6609" value="" style="shape=partialRectangle;html=1;whiteSpace=wrap;connectable=0;strokeColor=inherit;overflow=hidden;fillColor=none;top=0;left=0;bottom=0;right=0;pointerEvents=1;" parent="LV0FwBpydXXZrUbya0PG-6607" vertex="1">
                    <mxGeometry x="6" width="6" height="6" as="geometry">
                        <mxRectangle width="6" height="6" as="alternateBounds"/>
                    </mxGeometry>
                </mxCell>
                <mxCell id="LV0FwBpydXXZrUbya0PG-6610" value="" style="shape=partialRectangle;html=1;whiteSpace=wrap;connectable=0;strokeColor=inherit;overflow=hidden;fillColor=none;top=0;left=0;bottom=0;right=0;pointerEvents=1;" parent="LV0FwBpydXXZrUbya0PG-6607" vertex="1">
                    <mxGeometry x="12" width="6" height="6" as="geometry">
                        <mxRectangle width="6" height="6" as="alternateBounds"/>
                    </mxGeometry>
                </mxCell>
                <mxCell id="LV0FwBpydXXZrUbya0PG-6611" value="" style="shape=partialRectangle;html=1;whiteSpace=wrap;connectable=0;strokeColor=inherit;overflow=hidden;fillColor=none;top=0;left=0;bottom=0;right=0;pointerEvents=1;" parent="LV0FwBpydXXZrUbya0PG-6607" vertex="1">
                    <mxGeometry x="18" width="6" height="6" as="geometry">
                        <mxRectangle width="6" height="6" as="alternateBounds"/>
                    </mxGeometry>
                </mxCell>
                <mxCell id="LV0FwBpydXXZrUbya0PG-6612" value="" style="shape=partialRectangle;html=1;whiteSpace=wrap;connectable=0;strokeColor=inherit;overflow=hidden;fillColor=none;top=0;left=0;bottom=0;right=0;pointerEvents=1;" parent="LV0FwBpydXXZrUbya0PG-6607" vertex="1">
                    <mxGeometry x="24" width="6" height="6" as="geometry">
                        <mxRectangle width="6" height="6" as="alternateBounds"/>
                    </mxGeometry>
                </mxCell>
                <mxCell id="LV0FwBpydXXZrUbya0PG-6613" value="" style="shape=partialRectangle;html=1;whiteSpace=wrap;connectable=0;strokeColor=inherit;overflow=hidden;fillColor=none;top=0;left=0;bottom=0;right=0;pointerEvents=1;" parent="LV0FwBpydXXZrUbya0PG-6607" vertex="1">
                    <mxGeometry x="30" width="6" height="6" as="geometry">
                        <mxRectangle width="6" height="6" as="alternateBounds"/>
                    </mxGeometry>
                </mxCell>
                <mxCell id="LV0FwBpydXXZrUbya0PG-6614" value="" style="shape=partialRectangle;html=1;whiteSpace=wrap;connectable=0;strokeColor=inherit;overflow=hidden;fillColor=none;top=0;left=0;bottom=0;right=0;pointerEvents=1;" parent="LV0FwBpydXXZrUbya0PG-6607" vertex="1">
                    <mxGeometry x="36" width="6" height="6" as="geometry">
                        <mxRectangle width="6" height="6" as="alternateBounds"/>
                    </mxGeometry>
                </mxCell>
                <mxCell id="LV0FwBpydXXZrUbya0PG-6615" value="" style="shape=partialRectangle;html=1;whiteSpace=wrap;connectable=0;strokeColor=inherit;overflow=hidden;fillColor=none;top=0;left=0;bottom=0;right=0;pointerEvents=1;" parent="LV0FwBpydXXZrUbya0PG-6607" vertex="1">
                    <mxGeometry x="42" width="6" height="6" as="geometry">
                        <mxRectangle width="6" height="6" as="alternateBounds"/>
                    </mxGeometry>
                </mxCell>
                <mxCell id="LV0FwBpydXXZrUbya0PG-6616" value="" style="shape=partialRectangle;html=1;whiteSpace=wrap;connectable=0;strokeColor=inherit;overflow=hidden;fillColor=none;top=0;left=0;bottom=0;right=0;pointerEvents=1;" parent="LV0FwBpydXXZrUbya0PG-6607" vertex="1">
                    <mxGeometry x="48" width="6" height="6" as="geometry">
                        <mxRectangle width="6" height="6" as="alternateBounds"/>
                    </mxGeometry>
                </mxCell>
                <mxCell id="LV0FwBpydXXZrUbya0PG-6617" value="" style="shape=partialRectangle;html=1;whiteSpace=wrap;connectable=0;strokeColor=inherit;overflow=hidden;fillColor=none;top=0;left=0;bottom=0;right=0;pointerEvents=1;" parent="LV0FwBpydXXZrUbya0PG-6607" vertex="1">
                    <mxGeometry x="54" width="6" height="6" as="geometry">
                        <mxRectangle width="6" height="6" as="alternateBounds"/>
                    </mxGeometry>
                </mxCell>
                <mxCell id="LV0FwBpydXXZrUbya0PG-6618" value="" style="shape=partialRectangle;html=1;whiteSpace=wrap;connectable=0;strokeColor=inherit;overflow=hidden;fillColor=none;top=0;left=0;bottom=0;right=0;pointerEvents=1;" parent="LV0FwBpydXXZrUbya0PG-6607" vertex="1">
                    <mxGeometry x="60" width="6" height="6" as="geometry">
                        <mxRectangle width="6" height="6" as="alternateBounds"/>
                    </mxGeometry>
                </mxCell>
                <mxCell id="LV0FwBpydXXZrUbya0PG-6619" value="" style="shape=partialRectangle;html=1;whiteSpace=wrap;connectable=0;strokeColor=inherit;overflow=hidden;fillColor=none;top=0;left=0;bottom=0;right=0;pointerEvents=1;" parent="LV0FwBpydXXZrUbya0PG-6607" vertex="1">
                    <mxGeometry x="66" width="6" height="6" as="geometry">
                        <mxRectangle width="6" height="6" as="alternateBounds"/>
                    </mxGeometry>
                </mxCell>
                <mxCell id="LV0FwBpydXXZrUbya0PG-6620" value="" style="shape=partialRectangle;html=1;whiteSpace=wrap;connectable=0;strokeColor=inherit;overflow=hidden;fillColor=none;top=0;left=0;bottom=0;right=0;pointerEvents=1;" parent="LV0FwBpydXXZrUbya0PG-6607" vertex="1">
                    <mxGeometry x="72" width="6" height="6" as="geometry">
                        <mxRectangle width="6" height="6" as="alternateBounds"/>
                    </mxGeometry>
                </mxCell>
                <mxCell id="LV0FwBpydXXZrUbya0PG-6621" value="" style="shape=partialRectangle;html=1;whiteSpace=wrap;connectable=0;strokeColor=inherit;overflow=hidden;fillColor=none;top=0;left=0;bottom=0;right=0;pointerEvents=1;" parent="LV0FwBpydXXZrUbya0PG-6607" vertex="1">
                    <mxGeometry x="78" width="6" height="6" as="geometry">
                        <mxRectangle width="6" height="6" as="alternateBounds"/>
                    </mxGeometry>
                </mxCell>
                <mxCell id="LV0FwBpydXXZrUbya0PG-6622" value="" style="shape=partialRectangle;html=1;whiteSpace=wrap;connectable=0;strokeColor=inherit;overflow=hidden;fillColor=none;top=0;left=0;bottom=0;right=0;pointerEvents=1;" parent="LV0FwBpydXXZrUbya0PG-6607" vertex="1">
                    <mxGeometry x="84" width="6" height="6" as="geometry">
                        <mxRectangle width="6" height="6" as="alternateBounds"/>
                    </mxGeometry>
                </mxCell>
                <mxCell id="LV0FwBpydXXZrUbya0PG-6623" value="" style="shape=partialRectangle;html=1;whiteSpace=wrap;connectable=0;strokeColor=inherit;overflow=hidden;fillColor=none;top=0;left=0;bottom=0;right=0;pointerEvents=1;" parent="LV0FwBpydXXZrUbya0PG-6607" vertex="1">
                    <mxGeometry x="90" width="6" height="6" as="geometry">
                        <mxRectangle width="6" height="6" as="alternateBounds"/>
                    </mxGeometry>
                </mxCell>
                <mxCell id="LV0FwBpydXXZrUbya0PG-6624" value="" style="shape=partialRectangle;html=1;whiteSpace=wrap;connectable=0;strokeColor=inherit;overflow=hidden;fillColor=none;top=0;left=0;bottom=0;right=0;pointerEvents=1;" parent="LV0FwBpydXXZrUbya0PG-6607" vertex="1">
                    <mxGeometry x="96" width="6" height="6" as="geometry">
                        <mxRectangle width="6" height="6" as="alternateBounds"/>
                    </mxGeometry>
                </mxCell>
                <mxCell id="LV0FwBpydXXZrUbya0PG-6625" value="" style="shape=partialRectangle;html=1;whiteSpace=wrap;connectable=0;strokeColor=inherit;overflow=hidden;fillColor=none;top=0;left=0;bottom=0;right=0;pointerEvents=1;" parent="LV0FwBpydXXZrUbya0PG-6607" vertex="1">
                    <mxGeometry x="102" width="6" height="6" as="geometry">
                        <mxRectangle width="6" height="6" as="alternateBounds"/>
                    </mxGeometry>
                </mxCell>
                <mxCell id="LV0FwBpydXXZrUbya0PG-6626" value="" style="shape=partialRectangle;html=1;whiteSpace=wrap;connectable=0;strokeColor=inherit;overflow=hidden;fillColor=none;top=0;left=0;bottom=0;right=0;pointerEvents=1;" parent="LV0FwBpydXXZrUbya0PG-6607" vertex="1">
                    <mxGeometry x="108" width="6" height="6" as="geometry">
                        <mxRectangle width="6" height="6" as="alternateBounds"/>
                    </mxGeometry>
                </mxCell>
                <mxCell id="LV0FwBpydXXZrUbya0PG-6627" value="" style="shape=partialRectangle;html=1;whiteSpace=wrap;connectable=0;strokeColor=inherit;overflow=hidden;fillColor=none;top=0;left=0;bottom=0;right=0;pointerEvents=1;" parent="LV0FwBpydXXZrUbya0PG-6607" vertex="1">
                    <mxGeometry x="114" width="6" height="6" as="geometry">
                        <mxRectangle width="6" height="6" as="alternateBounds"/>
                    </mxGeometry>
                </mxCell>
                <mxCell id="LV0FwBpydXXZrUbya0PG-6628" value="" style="shape=tableRow;horizontal=0;startSize=0;swimlaneHead=0;swimlaneBody=0;strokeColor=inherit;top=0;left=0;bottom=0;right=0;collapsible=0;dropTarget=0;fillColor=none;points=[[0,0.5],[1,0.5]];portConstraint=eastwest;" parent="LV0FwBpydXXZrUbya0PG-6564" vertex="1">
                    <mxGeometry y="19" width="120" height="6" as="geometry"/>
                </mxCell>
                <mxCell id="LV0FwBpydXXZrUbya0PG-6629" value="" style="shape=partialRectangle;html=1;whiteSpace=wrap;connectable=0;strokeColor=inherit;overflow=hidden;fillColor=none;top=0;left=0;bottom=0;right=0;pointerEvents=1;" parent="LV0FwBpydXXZrUbya0PG-6628" vertex="1">
                    <mxGeometry width="6" height="6" as="geometry">
                        <mxRectangle width="6" height="6" as="alternateBounds"/>
                    </mxGeometry>
                </mxCell>
                <mxCell id="LV0FwBpydXXZrUbya0PG-6630" value="" style="shape=partialRectangle;html=1;whiteSpace=wrap;connectable=0;strokeColor=inherit;overflow=hidden;fillColor=none;top=0;left=0;bottom=0;right=0;pointerEvents=1;" parent="LV0FwBpydXXZrUbya0PG-6628" vertex="1">
                    <mxGeometry x="6" width="6" height="6" as="geometry">
                        <mxRectangle width="6" height="6" as="alternateBounds"/>
                    </mxGeometry>
                </mxCell>
                <mxCell id="LV0FwBpydXXZrUbya0PG-6631" value="" style="shape=partialRectangle;html=1;whiteSpace=wrap;connectable=0;strokeColor=inherit;overflow=hidden;fillColor=none;top=0;left=0;bottom=0;right=0;pointerEvents=1;" parent="LV0FwBpydXXZrUbya0PG-6628" vertex="1">
                    <mxGeometry x="12" width="6" height="6" as="geometry">
                        <mxRectangle width="6" height="6" as="alternateBounds"/>
                    </mxGeometry>
                </mxCell>
                <mxCell id="LV0FwBpydXXZrUbya0PG-6632" value="" style="shape=partialRectangle;html=1;whiteSpace=wrap;connectable=0;strokeColor=inherit;overflow=hidden;fillColor=none;top=0;left=0;bottom=0;right=0;pointerEvents=1;" parent="LV0FwBpydXXZrUbya0PG-6628" vertex="1">
                    <mxGeometry x="18" width="6" height="6" as="geometry">
                        <mxRectangle width="6" height="6" as="alternateBounds"/>
                    </mxGeometry>
                </mxCell>
                <mxCell id="LV0FwBpydXXZrUbya0PG-6633" value="" style="shape=partialRectangle;html=1;whiteSpace=wrap;connectable=0;strokeColor=inherit;overflow=hidden;fillColor=none;top=0;left=0;bottom=0;right=0;pointerEvents=1;" parent="LV0FwBpydXXZrUbya0PG-6628" vertex="1">
                    <mxGeometry x="24" width="6" height="6" as="geometry">
                        <mxRectangle width="6" height="6" as="alternateBounds"/>
                    </mxGeometry>
                </mxCell>
                <mxCell id="LV0FwBpydXXZrUbya0PG-6634" value="" style="shape=partialRectangle;html=1;whiteSpace=wrap;connectable=0;strokeColor=inherit;overflow=hidden;fillColor=none;top=0;left=0;bottom=0;right=0;pointerEvents=1;" parent="LV0FwBpydXXZrUbya0PG-6628" vertex="1">
                    <mxGeometry x="30" width="6" height="6" as="geometry">
                        <mxRectangle width="6" height="6" as="alternateBounds"/>
                    </mxGeometry>
                </mxCell>
                <mxCell id="LV0FwBpydXXZrUbya0PG-6635" value="" style="shape=partialRectangle;html=1;whiteSpace=wrap;connectable=0;strokeColor=inherit;overflow=hidden;fillColor=none;top=0;left=0;bottom=0;right=0;pointerEvents=1;" parent="LV0FwBpydXXZrUbya0PG-6628" vertex="1">
                    <mxGeometry x="36" width="6" height="6" as="geometry">
                        <mxRectangle width="6" height="6" as="alternateBounds"/>
                    </mxGeometry>
                </mxCell>
                <mxCell id="LV0FwBpydXXZrUbya0PG-6636" value="" style="shape=partialRectangle;html=1;whiteSpace=wrap;connectable=0;strokeColor=inherit;overflow=hidden;fillColor=none;top=0;left=0;bottom=0;right=0;pointerEvents=1;" parent="LV0FwBpydXXZrUbya0PG-6628" vertex="1">
                    <mxGeometry x="42" width="6" height="6" as="geometry">
                        <mxRectangle width="6" height="6" as="alternateBounds"/>
                    </mxGeometry>
                </mxCell>
                <mxCell id="LV0FwBpydXXZrUbya0PG-6637" value="" style="shape=partialRectangle;html=1;whiteSpace=wrap;connectable=0;strokeColor=inherit;overflow=hidden;fillColor=none;top=0;left=0;bottom=0;right=0;pointerEvents=1;" parent="LV0FwBpydXXZrUbya0PG-6628" vertex="1">
                    <mxGeometry x="48" width="6" height="6" as="geometry">
                        <mxRectangle width="6" height="6" as="alternateBounds"/>
                    </mxGeometry>
                </mxCell>
                <mxCell id="LV0FwBpydXXZrUbya0PG-6638" value="" style="shape=partialRectangle;html=1;whiteSpace=wrap;connectable=0;strokeColor=inherit;overflow=hidden;fillColor=none;top=0;left=0;bottom=0;right=0;pointerEvents=1;" parent="LV0FwBpydXXZrUbya0PG-6628" vertex="1">
                    <mxGeometry x="54" width="6" height="6" as="geometry">
                        <mxRectangle width="6" height="6" as="alternateBounds"/>
                    </mxGeometry>
                </mxCell>
                <mxCell id="LV0FwBpydXXZrUbya0PG-6639" value="" style="shape=partialRectangle;html=1;whiteSpace=wrap;connectable=0;strokeColor=inherit;overflow=hidden;fillColor=none;top=0;left=0;bottom=0;right=0;pointerEvents=1;" parent="LV0FwBpydXXZrUbya0PG-6628" vertex="1">
                    <mxGeometry x="60" width="6" height="6" as="geometry">
                        <mxRectangle width="6" height="6" as="alternateBounds"/>
                    </mxGeometry>
                </mxCell>
                <mxCell id="LV0FwBpydXXZrUbya0PG-6640" value="" style="shape=partialRectangle;html=1;whiteSpace=wrap;connectable=0;strokeColor=inherit;overflow=hidden;fillColor=none;top=0;left=0;bottom=0;right=0;pointerEvents=1;" parent="LV0FwBpydXXZrUbya0PG-6628" vertex="1">
                    <mxGeometry x="66" width="6" height="6" as="geometry">
                        <mxRectangle width="6" height="6" as="alternateBounds"/>
                    </mxGeometry>
                </mxCell>
                <mxCell id="LV0FwBpydXXZrUbya0PG-6641" value="" style="shape=partialRectangle;html=1;whiteSpace=wrap;connectable=0;strokeColor=inherit;overflow=hidden;fillColor=none;top=0;left=0;bottom=0;right=0;pointerEvents=1;" parent="LV0FwBpydXXZrUbya0PG-6628" vertex="1">
                    <mxGeometry x="72" width="6" height="6" as="geometry">
                        <mxRectangle width="6" height="6" as="alternateBounds"/>
                    </mxGeometry>
                </mxCell>
                <mxCell id="LV0FwBpydXXZrUbya0PG-6642" value="" style="shape=partialRectangle;html=1;whiteSpace=wrap;connectable=0;strokeColor=inherit;overflow=hidden;fillColor=none;top=0;left=0;bottom=0;right=0;pointerEvents=1;" parent="LV0FwBpydXXZrUbya0PG-6628" vertex="1">
                    <mxGeometry x="78" width="6" height="6" as="geometry">
                        <mxRectangle width="6" height="6" as="alternateBounds"/>
                    </mxGeometry>
                </mxCell>
                <mxCell id="LV0FwBpydXXZrUbya0PG-6643" value="" style="shape=partialRectangle;html=1;whiteSpace=wrap;connectable=0;strokeColor=inherit;overflow=hidden;fillColor=none;top=0;left=0;bottom=0;right=0;pointerEvents=1;" parent="LV0FwBpydXXZrUbya0PG-6628" vertex="1">
                    <mxGeometry x="84" width="6" height="6" as="geometry">
                        <mxRectangle width="6" height="6" as="alternateBounds"/>
                    </mxGeometry>
                </mxCell>
                <mxCell id="LV0FwBpydXXZrUbya0PG-6644" value="" style="shape=partialRectangle;html=1;whiteSpace=wrap;connectable=0;strokeColor=inherit;overflow=hidden;fillColor=none;top=0;left=0;bottom=0;right=0;pointerEvents=1;" parent="LV0FwBpydXXZrUbya0PG-6628" vertex="1">
                    <mxGeometry x="90" width="6" height="6" as="geometry">
                        <mxRectangle width="6" height="6" as="alternateBounds"/>
                    </mxGeometry>
                </mxCell>
                <mxCell id="LV0FwBpydXXZrUbya0PG-6645" value="" style="shape=partialRectangle;html=1;whiteSpace=wrap;connectable=0;strokeColor=inherit;overflow=hidden;fillColor=none;top=0;left=0;bottom=0;right=0;pointerEvents=1;" parent="LV0FwBpydXXZrUbya0PG-6628" vertex="1">
                    <mxGeometry x="96" width="6" height="6" as="geometry">
                        <mxRectangle width="6" height="6" as="alternateBounds"/>
                    </mxGeometry>
                </mxCell>
                <mxCell id="LV0FwBpydXXZrUbya0PG-6646" value="" style="shape=partialRectangle;html=1;whiteSpace=wrap;connectable=0;strokeColor=inherit;overflow=hidden;fillColor=none;top=0;left=0;bottom=0;right=0;pointerEvents=1;" parent="LV0FwBpydXXZrUbya0PG-6628" vertex="1">
                    <mxGeometry x="102" width="6" height="6" as="geometry">
                        <mxRectangle width="6" height="6" as="alternateBounds"/>
                    </mxGeometry>
                </mxCell>
                <mxCell id="LV0FwBpydXXZrUbya0PG-6647" value="" style="shape=partialRectangle;html=1;whiteSpace=wrap;connectable=0;strokeColor=inherit;overflow=hidden;fillColor=none;top=0;left=0;bottom=0;right=0;pointerEvents=1;" parent="LV0FwBpydXXZrUbya0PG-6628" vertex="1">
                    <mxGeometry x="108" width="6" height="6" as="geometry">
                        <mxRectangle width="6" height="6" as="alternateBounds"/>
                    </mxGeometry>
                </mxCell>
                <mxCell id="LV0FwBpydXXZrUbya0PG-6648" value="" style="shape=partialRectangle;html=1;whiteSpace=wrap;connectable=0;strokeColor=inherit;overflow=hidden;fillColor=none;top=0;left=0;bottom=0;right=0;pointerEvents=1;" parent="LV0FwBpydXXZrUbya0PG-6628" vertex="1">
                    <mxGeometry x="114" width="6" height="6" as="geometry">
                        <mxRectangle width="6" height="6" as="alternateBounds"/>
                    </mxGeometry>
                </mxCell>
                <mxCell id="LV0FwBpydXXZrUbya0PG-6649" value="" style="shape=tableRow;horizontal=0;startSize=0;swimlaneHead=0;swimlaneBody=0;strokeColor=inherit;top=0;left=0;bottom=0;right=0;collapsible=0;dropTarget=0;fillColor=none;points=[[0,0.5],[1,0.5]];portConstraint=eastwest;" parent="LV0FwBpydXXZrUbya0PG-6564" vertex="1">
                    <mxGeometry y="25" width="120" height="6" as="geometry"/>
                </mxCell>
                <mxCell id="LV0FwBpydXXZrUbya0PG-6650" value="" style="shape=partialRectangle;html=1;whiteSpace=wrap;connectable=0;strokeColor=inherit;overflow=hidden;fillColor=none;top=0;left=0;bottom=0;right=0;pointerEvents=1;" parent="LV0FwBpydXXZrUbya0PG-6649" vertex="1">
                    <mxGeometry width="6" height="6" as="geometry">
                        <mxRectangle width="6" height="6" as="alternateBounds"/>
                    </mxGeometry>
                </mxCell>
                <mxCell id="LV0FwBpydXXZrUbya0PG-6651" value="" style="shape=partialRectangle;html=1;whiteSpace=wrap;connectable=0;strokeColor=inherit;overflow=hidden;fillColor=none;top=0;left=0;bottom=0;right=0;pointerEvents=1;" parent="LV0FwBpydXXZrUbya0PG-6649" vertex="1">
                    <mxGeometry x="6" width="6" height="6" as="geometry">
                        <mxRectangle width="6" height="6" as="alternateBounds"/>
                    </mxGeometry>
                </mxCell>
                <mxCell id="LV0FwBpydXXZrUbya0PG-6652" value="" style="shape=partialRectangle;html=1;whiteSpace=wrap;connectable=0;strokeColor=inherit;overflow=hidden;fillColor=none;top=0;left=0;bottom=0;right=0;pointerEvents=1;" parent="LV0FwBpydXXZrUbya0PG-6649" vertex="1">
                    <mxGeometry x="12" width="6" height="6" as="geometry">
                        <mxRectangle width="6" height="6" as="alternateBounds"/>
                    </mxGeometry>
                </mxCell>
                <mxCell id="LV0FwBpydXXZrUbya0PG-6653" value="" style="shape=partialRectangle;html=1;whiteSpace=wrap;connectable=0;strokeColor=inherit;overflow=hidden;fillColor=none;top=0;left=0;bottom=0;right=0;pointerEvents=1;" parent="LV0FwBpydXXZrUbya0PG-6649" vertex="1">
                    <mxGeometry x="18" width="6" height="6" as="geometry">
                        <mxRectangle width="6" height="6" as="alternateBounds"/>
                    </mxGeometry>
                </mxCell>
                <mxCell id="LV0FwBpydXXZrUbya0PG-6654" value="" style="shape=partialRectangle;html=1;whiteSpace=wrap;connectable=0;strokeColor=inherit;overflow=hidden;fillColor=none;top=0;left=0;bottom=0;right=0;pointerEvents=1;" parent="LV0FwBpydXXZrUbya0PG-6649" vertex="1">
                    <mxGeometry x="24" width="6" height="6" as="geometry">
                        <mxRectangle width="6" height="6" as="alternateBounds"/>
                    </mxGeometry>
                </mxCell>
                <mxCell id="LV0FwBpydXXZrUbya0PG-6655" value="" style="shape=partialRectangle;html=1;whiteSpace=wrap;connectable=0;strokeColor=inherit;overflow=hidden;fillColor=none;top=0;left=0;bottom=0;right=0;pointerEvents=1;" parent="LV0FwBpydXXZrUbya0PG-6649" vertex="1">
                    <mxGeometry x="30" width="6" height="6" as="geometry">
                        <mxRectangle width="6" height="6" as="alternateBounds"/>
                    </mxGeometry>
                </mxCell>
                <mxCell id="LV0FwBpydXXZrUbya0PG-6656" value="" style="shape=partialRectangle;html=1;whiteSpace=wrap;connectable=0;strokeColor=inherit;overflow=hidden;fillColor=none;top=0;left=0;bottom=0;right=0;pointerEvents=1;" parent="LV0FwBpydXXZrUbya0PG-6649" vertex="1">
                    <mxGeometry x="36" width="6" height="6" as="geometry">
                        <mxRectangle width="6" height="6" as="alternateBounds"/>
                    </mxGeometry>
                </mxCell>
                <mxCell id="LV0FwBpydXXZrUbya0PG-6657" value="" style="shape=partialRectangle;html=1;whiteSpace=wrap;connectable=0;strokeColor=inherit;overflow=hidden;fillColor=none;top=0;left=0;bottom=0;right=0;pointerEvents=1;" parent="LV0FwBpydXXZrUbya0PG-6649" vertex="1">
                    <mxGeometry x="42" width="6" height="6" as="geometry">
                        <mxRectangle width="6" height="6" as="alternateBounds"/>
                    </mxGeometry>
                </mxCell>
                <mxCell id="LV0FwBpydXXZrUbya0PG-6658" value="" style="shape=partialRectangle;html=1;whiteSpace=wrap;connectable=0;strokeColor=inherit;overflow=hidden;fillColor=none;top=0;left=0;bottom=0;right=0;pointerEvents=1;" parent="LV0FwBpydXXZrUbya0PG-6649" vertex="1">
                    <mxGeometry x="48" width="6" height="6" as="geometry">
                        <mxRectangle width="6" height="6" as="alternateBounds"/>
                    </mxGeometry>
                </mxCell>
                <mxCell id="LV0FwBpydXXZrUbya0PG-6659" value="" style="shape=partialRectangle;html=1;whiteSpace=wrap;connectable=0;strokeColor=inherit;overflow=hidden;fillColor=none;top=0;left=0;bottom=0;right=0;pointerEvents=1;" parent="LV0FwBpydXXZrUbya0PG-6649" vertex="1">
                    <mxGeometry x="54" width="6" height="6" as="geometry">
                        <mxRectangle width="6" height="6" as="alternateBounds"/>
                    </mxGeometry>
                </mxCell>
                <mxCell id="LV0FwBpydXXZrUbya0PG-6660" value="" style="shape=partialRectangle;html=1;whiteSpace=wrap;connectable=0;strokeColor=inherit;overflow=hidden;fillColor=none;top=0;left=0;bottom=0;right=0;pointerEvents=1;" parent="LV0FwBpydXXZrUbya0PG-6649" vertex="1">
                    <mxGeometry x="60" width="6" height="6" as="geometry">
                        <mxRectangle width="6" height="6" as="alternateBounds"/>
                    </mxGeometry>
                </mxCell>
                <mxCell id="LV0FwBpydXXZrUbya0PG-6661" value="" style="shape=partialRectangle;html=1;whiteSpace=wrap;connectable=0;strokeColor=inherit;overflow=hidden;fillColor=none;top=0;left=0;bottom=0;right=0;pointerEvents=1;" parent="LV0FwBpydXXZrUbya0PG-6649" vertex="1">
                    <mxGeometry x="66" width="6" height="6" as="geometry">
                        <mxRectangle width="6" height="6" as="alternateBounds"/>
                    </mxGeometry>
                </mxCell>
                <mxCell id="LV0FwBpydXXZrUbya0PG-6662" value="" style="shape=partialRectangle;html=1;whiteSpace=wrap;connectable=0;strokeColor=inherit;overflow=hidden;fillColor=none;top=0;left=0;bottom=0;right=0;pointerEvents=1;" parent="LV0FwBpydXXZrUbya0PG-6649" vertex="1">
                    <mxGeometry x="72" width="6" height="6" as="geometry">
                        <mxRectangle width="6" height="6" as="alternateBounds"/>
                    </mxGeometry>
                </mxCell>
                <mxCell id="LV0FwBpydXXZrUbya0PG-6663" value="" style="shape=partialRectangle;html=1;whiteSpace=wrap;connectable=0;strokeColor=inherit;overflow=hidden;fillColor=none;top=0;left=0;bottom=0;right=0;pointerEvents=1;" parent="LV0FwBpydXXZrUbya0PG-6649" vertex="1">
                    <mxGeometry x="78" width="6" height="6" as="geometry">
                        <mxRectangle width="6" height="6" as="alternateBounds"/>
                    </mxGeometry>
                </mxCell>
                <mxCell id="LV0FwBpydXXZrUbya0PG-6664" value="" style="shape=partialRectangle;html=1;whiteSpace=wrap;connectable=0;strokeColor=inherit;overflow=hidden;fillColor=none;top=0;left=0;bottom=0;right=0;pointerEvents=1;" parent="LV0FwBpydXXZrUbya0PG-6649" vertex="1">
                    <mxGeometry x="84" width="6" height="6" as="geometry">
                        <mxRectangle width="6" height="6" as="alternateBounds"/>
                    </mxGeometry>
                </mxCell>
                <mxCell id="LV0FwBpydXXZrUbya0PG-6665" value="" style="shape=partialRectangle;html=1;whiteSpace=wrap;connectable=0;strokeColor=inherit;overflow=hidden;fillColor=none;top=0;left=0;bottom=0;right=0;pointerEvents=1;" parent="LV0FwBpydXXZrUbya0PG-6649" vertex="1">
                    <mxGeometry x="90" width="6" height="6" as="geometry">
                        <mxRectangle width="6" height="6" as="alternateBounds"/>
                    </mxGeometry>
                </mxCell>
                <mxCell id="LV0FwBpydXXZrUbya0PG-6666" value="" style="shape=partialRectangle;html=1;whiteSpace=wrap;connectable=0;strokeColor=inherit;overflow=hidden;fillColor=none;top=0;left=0;bottom=0;right=0;pointerEvents=1;" parent="LV0FwBpydXXZrUbya0PG-6649" vertex="1">
                    <mxGeometry x="96" width="6" height="6" as="geometry">
                        <mxRectangle width="6" height="6" as="alternateBounds"/>
                    </mxGeometry>
                </mxCell>
                <mxCell id="LV0FwBpydXXZrUbya0PG-6667" value="" style="shape=partialRectangle;html=1;whiteSpace=wrap;connectable=0;strokeColor=inherit;overflow=hidden;fillColor=none;top=0;left=0;bottom=0;right=0;pointerEvents=1;" parent="LV0FwBpydXXZrUbya0PG-6649" vertex="1">
                    <mxGeometry x="102" width="6" height="6" as="geometry">
                        <mxRectangle width="6" height="6" as="alternateBounds"/>
                    </mxGeometry>
                </mxCell>
                <mxCell id="LV0FwBpydXXZrUbya0PG-6668" value="" style="shape=partialRectangle;html=1;whiteSpace=wrap;connectable=0;strokeColor=inherit;overflow=hidden;fillColor=none;top=0;left=0;bottom=0;right=0;pointerEvents=1;" parent="LV0FwBpydXXZrUbya0PG-6649" vertex="1">
                    <mxGeometry x="108" width="6" height="6" as="geometry">
                        <mxRectangle width="6" height="6" as="alternateBounds"/>
                    </mxGeometry>
                </mxCell>
                <mxCell id="LV0FwBpydXXZrUbya0PG-6669" value="" style="shape=partialRectangle;html=1;whiteSpace=wrap;connectable=0;strokeColor=inherit;overflow=hidden;fillColor=none;top=0;left=0;bottom=0;right=0;pointerEvents=1;" parent="LV0FwBpydXXZrUbya0PG-6649" vertex="1">
                    <mxGeometry x="114" width="6" height="6" as="geometry">
                        <mxRectangle width="6" height="6" as="alternateBounds"/>
                    </mxGeometry>
                </mxCell>
                <mxCell id="LV0FwBpydXXZrUbya0PG-6670" value="" style="shape=tableRow;horizontal=0;startSize=0;swimlaneHead=0;swimlaneBody=0;strokeColor=inherit;top=0;left=0;bottom=0;right=0;collapsible=0;dropTarget=0;fillColor=none;points=[[0,0.5],[1,0.5]];portConstraint=eastwest;" parent="LV0FwBpydXXZrUbya0PG-6564" vertex="1">
                    <mxGeometry y="31" width="120" height="7" as="geometry"/>
                </mxCell>
                <mxCell id="LV0FwBpydXXZrUbya0PG-6671" value="" style="shape=partialRectangle;html=1;whiteSpace=wrap;connectable=0;strokeColor=inherit;overflow=hidden;fillColor=none;top=0;left=0;bottom=0;right=0;pointerEvents=1;" parent="LV0FwBpydXXZrUbya0PG-6670" vertex="1">
                    <mxGeometry width="6" height="7" as="geometry">
                        <mxRectangle width="6" height="7" as="alternateBounds"/>
                    </mxGeometry>
                </mxCell>
                <mxCell id="LV0FwBpydXXZrUbya0PG-6672" value="" style="shape=partialRectangle;html=1;whiteSpace=wrap;connectable=0;strokeColor=inherit;overflow=hidden;fillColor=none;top=0;left=0;bottom=0;right=0;pointerEvents=1;" parent="LV0FwBpydXXZrUbya0PG-6670" vertex="1">
                    <mxGeometry x="6" width="6" height="7" as="geometry">
                        <mxRectangle width="6" height="7" as="alternateBounds"/>
                    </mxGeometry>
                </mxCell>
                <mxCell id="LV0FwBpydXXZrUbya0PG-6673" value="" style="shape=partialRectangle;html=1;whiteSpace=wrap;connectable=0;strokeColor=inherit;overflow=hidden;fillColor=none;top=0;left=0;bottom=0;right=0;pointerEvents=1;" parent="LV0FwBpydXXZrUbya0PG-6670" vertex="1">
                    <mxGeometry x="12" width="6" height="7" as="geometry">
                        <mxRectangle width="6" height="7" as="alternateBounds"/>
                    </mxGeometry>
                </mxCell>
                <mxCell id="LV0FwBpydXXZrUbya0PG-6674" value="" style="shape=partialRectangle;html=1;whiteSpace=wrap;connectable=0;strokeColor=inherit;overflow=hidden;fillColor=none;top=0;left=0;bottom=0;right=0;pointerEvents=1;" parent="LV0FwBpydXXZrUbya0PG-6670" vertex="1">
                    <mxGeometry x="18" width="6" height="7" as="geometry">
                        <mxRectangle width="6" height="7" as="alternateBounds"/>
                    </mxGeometry>
                </mxCell>
                <mxCell id="LV0FwBpydXXZrUbya0PG-6675" value="" style="shape=partialRectangle;html=1;whiteSpace=wrap;connectable=0;strokeColor=inherit;overflow=hidden;fillColor=none;top=0;left=0;bottom=0;right=0;pointerEvents=1;" parent="LV0FwBpydXXZrUbya0PG-6670" vertex="1">
                    <mxGeometry x="24" width="6" height="7" as="geometry">
                        <mxRectangle width="6" height="7" as="alternateBounds"/>
                    </mxGeometry>
                </mxCell>
                <mxCell id="LV0FwBpydXXZrUbya0PG-6676" value="" style="shape=partialRectangle;html=1;whiteSpace=wrap;connectable=0;strokeColor=inherit;overflow=hidden;fillColor=none;top=0;left=0;bottom=0;right=0;pointerEvents=1;" parent="LV0FwBpydXXZrUbya0PG-6670" vertex="1">
                    <mxGeometry x="30" width="6" height="7" as="geometry">
                        <mxRectangle width="6" height="7" as="alternateBounds"/>
                    </mxGeometry>
                </mxCell>
                <mxCell id="LV0FwBpydXXZrUbya0PG-6677" value="" style="shape=partialRectangle;html=1;whiteSpace=wrap;connectable=0;strokeColor=inherit;overflow=hidden;fillColor=none;top=0;left=0;bottom=0;right=0;pointerEvents=1;" parent="LV0FwBpydXXZrUbya0PG-6670" vertex="1">
                    <mxGeometry x="36" width="6" height="7" as="geometry">
                        <mxRectangle width="6" height="7" as="alternateBounds"/>
                    </mxGeometry>
                </mxCell>
                <mxCell id="LV0FwBpydXXZrUbya0PG-6678" value="" style="shape=partialRectangle;html=1;whiteSpace=wrap;connectable=0;strokeColor=inherit;overflow=hidden;fillColor=none;top=0;left=0;bottom=0;right=0;pointerEvents=1;" parent="LV0FwBpydXXZrUbya0PG-6670" vertex="1">
                    <mxGeometry x="42" width="6" height="7" as="geometry">
                        <mxRectangle width="6" height="7" as="alternateBounds"/>
                    </mxGeometry>
                </mxCell>
                <mxCell id="LV0FwBpydXXZrUbya0PG-6679" value="" style="shape=partialRectangle;html=1;whiteSpace=wrap;connectable=0;strokeColor=inherit;overflow=hidden;fillColor=none;top=0;left=0;bottom=0;right=0;pointerEvents=1;" parent="LV0FwBpydXXZrUbya0PG-6670" vertex="1">
                    <mxGeometry x="48" width="6" height="7" as="geometry">
                        <mxRectangle width="6" height="7" as="alternateBounds"/>
                    </mxGeometry>
                </mxCell>
                <mxCell id="LV0FwBpydXXZrUbya0PG-6680" value="" style="shape=partialRectangle;html=1;whiteSpace=wrap;connectable=0;strokeColor=inherit;overflow=hidden;fillColor=none;top=0;left=0;bottom=0;right=0;pointerEvents=1;" parent="LV0FwBpydXXZrUbya0PG-6670" vertex="1">
                    <mxGeometry x="54" width="6" height="7" as="geometry">
                        <mxRectangle width="6" height="7" as="alternateBounds"/>
                    </mxGeometry>
                </mxCell>
                <mxCell id="LV0FwBpydXXZrUbya0PG-6681" value="" style="shape=partialRectangle;html=1;whiteSpace=wrap;connectable=0;strokeColor=inherit;overflow=hidden;fillColor=none;top=0;left=0;bottom=0;right=0;pointerEvents=1;" parent="LV0FwBpydXXZrUbya0PG-6670" vertex="1">
                    <mxGeometry x="60" width="6" height="7" as="geometry">
                        <mxRectangle width="6" height="7" as="alternateBounds"/>
                    </mxGeometry>
                </mxCell>
                <mxCell id="LV0FwBpydXXZrUbya0PG-6682" value="" style="shape=partialRectangle;html=1;whiteSpace=wrap;connectable=0;strokeColor=inherit;overflow=hidden;fillColor=none;top=0;left=0;bottom=0;right=0;pointerEvents=1;" parent="LV0FwBpydXXZrUbya0PG-6670" vertex="1">
                    <mxGeometry x="66" width="6" height="7" as="geometry">
                        <mxRectangle width="6" height="7" as="alternateBounds"/>
                    </mxGeometry>
                </mxCell>
                <mxCell id="LV0FwBpydXXZrUbya0PG-6683" value="" style="shape=partialRectangle;html=1;whiteSpace=wrap;connectable=0;strokeColor=inherit;overflow=hidden;fillColor=none;top=0;left=0;bottom=0;right=0;pointerEvents=1;" parent="LV0FwBpydXXZrUbya0PG-6670" vertex="1">
                    <mxGeometry x="72" width="6" height="7" as="geometry">
                        <mxRectangle width="6" height="7" as="alternateBounds"/>
                    </mxGeometry>
                </mxCell>
                <mxCell id="LV0FwBpydXXZrUbya0PG-6684" value="" style="shape=partialRectangle;html=1;whiteSpace=wrap;connectable=0;strokeColor=inherit;overflow=hidden;fillColor=none;top=0;left=0;bottom=0;right=0;pointerEvents=1;" parent="LV0FwBpydXXZrUbya0PG-6670" vertex="1">
                    <mxGeometry x="78" width="6" height="7" as="geometry">
                        <mxRectangle width="6" height="7" as="alternateBounds"/>
                    </mxGeometry>
                </mxCell>
                <mxCell id="LV0FwBpydXXZrUbya0PG-6685" value="" style="shape=partialRectangle;html=1;whiteSpace=wrap;connectable=0;strokeColor=inherit;overflow=hidden;fillColor=none;top=0;left=0;bottom=0;right=0;pointerEvents=1;" parent="LV0FwBpydXXZrUbya0PG-6670" vertex="1">
                    <mxGeometry x="84" width="6" height="7" as="geometry">
                        <mxRectangle width="6" height="7" as="alternateBounds"/>
                    </mxGeometry>
                </mxCell>
                <mxCell id="LV0FwBpydXXZrUbya0PG-6686" value="" style="shape=partialRectangle;html=1;whiteSpace=wrap;connectable=0;strokeColor=inherit;overflow=hidden;fillColor=none;top=0;left=0;bottom=0;right=0;pointerEvents=1;" parent="LV0FwBpydXXZrUbya0PG-6670" vertex="1">
                    <mxGeometry x="90" width="6" height="7" as="geometry">
                        <mxRectangle width="6" height="7" as="alternateBounds"/>
                    </mxGeometry>
                </mxCell>
                <mxCell id="LV0FwBpydXXZrUbya0PG-6687" value="" style="shape=partialRectangle;html=1;whiteSpace=wrap;connectable=0;strokeColor=inherit;overflow=hidden;fillColor=none;top=0;left=0;bottom=0;right=0;pointerEvents=1;" parent="LV0FwBpydXXZrUbya0PG-6670" vertex="1">
                    <mxGeometry x="96" width="6" height="7" as="geometry">
                        <mxRectangle width="6" height="7" as="alternateBounds"/>
                    </mxGeometry>
                </mxCell>
                <mxCell id="LV0FwBpydXXZrUbya0PG-6688" value="" style="shape=partialRectangle;html=1;whiteSpace=wrap;connectable=0;strokeColor=inherit;overflow=hidden;fillColor=none;top=0;left=0;bottom=0;right=0;pointerEvents=1;" parent="LV0FwBpydXXZrUbya0PG-6670" vertex="1">
                    <mxGeometry x="102" width="6" height="7" as="geometry">
                        <mxRectangle width="6" height="7" as="alternateBounds"/>
                    </mxGeometry>
                </mxCell>
                <mxCell id="LV0FwBpydXXZrUbya0PG-6689" value="" style="shape=partialRectangle;html=1;whiteSpace=wrap;connectable=0;strokeColor=inherit;overflow=hidden;fillColor=none;top=0;left=0;bottom=0;right=0;pointerEvents=1;" parent="LV0FwBpydXXZrUbya0PG-6670" vertex="1">
                    <mxGeometry x="108" width="6" height="7" as="geometry">
                        <mxRectangle width="6" height="7" as="alternateBounds"/>
                    </mxGeometry>
                </mxCell>
                <mxCell id="LV0FwBpydXXZrUbya0PG-6690" value="" style="shape=partialRectangle;html=1;whiteSpace=wrap;connectable=0;strokeColor=inherit;overflow=hidden;fillColor=none;top=0;left=0;bottom=0;right=0;pointerEvents=1;" parent="LV0FwBpydXXZrUbya0PG-6670" vertex="1">
                    <mxGeometry x="114" width="6" height="7" as="geometry">
                        <mxRectangle width="6" height="7" as="alternateBounds"/>
                    </mxGeometry>
                </mxCell>
                <mxCell id="LV0FwBpydXXZrUbya0PG-6691" value="" style="shape=tableRow;horizontal=0;startSize=0;swimlaneHead=0;swimlaneBody=0;strokeColor=inherit;top=0;left=0;bottom=0;right=0;collapsible=0;dropTarget=0;fillColor=none;points=[[0,0.5],[1,0.5]];portConstraint=eastwest;" parent="LV0FwBpydXXZrUbya0PG-6564" vertex="1">
                    <mxGeometry y="38" width="120" height="6" as="geometry"/>
                </mxCell>
                <mxCell id="LV0FwBpydXXZrUbya0PG-6692" value="" style="shape=partialRectangle;html=1;whiteSpace=wrap;connectable=0;strokeColor=inherit;overflow=hidden;fillColor=none;top=0;left=0;bottom=0;right=0;pointerEvents=1;" parent="LV0FwBpydXXZrUbya0PG-6691" vertex="1">
                    <mxGeometry width="6" height="6" as="geometry">
                        <mxRectangle width="6" height="6" as="alternateBounds"/>
                    </mxGeometry>
                </mxCell>
                <mxCell id="LV0FwBpydXXZrUbya0PG-6693" value="" style="shape=partialRectangle;html=1;whiteSpace=wrap;connectable=0;strokeColor=inherit;overflow=hidden;fillColor=none;top=0;left=0;bottom=0;right=0;pointerEvents=1;" parent="LV0FwBpydXXZrUbya0PG-6691" vertex="1">
                    <mxGeometry x="6" width="6" height="6" as="geometry">
                        <mxRectangle width="6" height="6" as="alternateBounds"/>
                    </mxGeometry>
                </mxCell>
                <mxCell id="LV0FwBpydXXZrUbya0PG-6694" value="" style="shape=partialRectangle;html=1;whiteSpace=wrap;connectable=0;strokeColor=inherit;overflow=hidden;fillColor=none;top=0;left=0;bottom=0;right=0;pointerEvents=1;" parent="LV0FwBpydXXZrUbya0PG-6691" vertex="1">
                    <mxGeometry x="12" width="6" height="6" as="geometry">
                        <mxRectangle width="6" height="6" as="alternateBounds"/>
                    </mxGeometry>
                </mxCell>
                <mxCell id="LV0FwBpydXXZrUbya0PG-6695" value="" style="shape=partialRectangle;html=1;whiteSpace=wrap;connectable=0;strokeColor=inherit;overflow=hidden;fillColor=none;top=0;left=0;bottom=0;right=0;pointerEvents=1;" parent="LV0FwBpydXXZrUbya0PG-6691" vertex="1">
                    <mxGeometry x="18" width="6" height="6" as="geometry">
                        <mxRectangle width="6" height="6" as="alternateBounds"/>
                    </mxGeometry>
                </mxCell>
                <mxCell id="LV0FwBpydXXZrUbya0PG-6696" value="" style="shape=partialRectangle;html=1;whiteSpace=wrap;connectable=0;strokeColor=inherit;overflow=hidden;fillColor=none;top=0;left=0;bottom=0;right=0;pointerEvents=1;" parent="LV0FwBpydXXZrUbya0PG-6691" vertex="1">
                    <mxGeometry x="24" width="6" height="6" as="geometry">
                        <mxRectangle width="6" height="6" as="alternateBounds"/>
                    </mxGeometry>
                </mxCell>
                <mxCell id="LV0FwBpydXXZrUbya0PG-6697" value="" style="shape=partialRectangle;html=1;whiteSpace=wrap;connectable=0;strokeColor=inherit;overflow=hidden;fillColor=none;top=0;left=0;bottom=0;right=0;pointerEvents=1;" parent="LV0FwBpydXXZrUbya0PG-6691" vertex="1">
                    <mxGeometry x="30" width="6" height="6" as="geometry">
                        <mxRectangle width="6" height="6" as="alternateBounds"/>
                    </mxGeometry>
                </mxCell>
                <mxCell id="LV0FwBpydXXZrUbya0PG-6698" value="" style="shape=partialRectangle;html=1;whiteSpace=wrap;connectable=0;strokeColor=inherit;overflow=hidden;fillColor=none;top=0;left=0;bottom=0;right=0;pointerEvents=1;" parent="LV0FwBpydXXZrUbya0PG-6691" vertex="1">
                    <mxGeometry x="36" width="6" height="6" as="geometry">
                        <mxRectangle width="6" height="6" as="alternateBounds"/>
                    </mxGeometry>
                </mxCell>
                <mxCell id="LV0FwBpydXXZrUbya0PG-6699" value="" style="shape=partialRectangle;html=1;whiteSpace=wrap;connectable=0;strokeColor=inherit;overflow=hidden;fillColor=none;top=0;left=0;bottom=0;right=0;pointerEvents=1;" parent="LV0FwBpydXXZrUbya0PG-6691" vertex="1">
                    <mxGeometry x="42" width="6" height="6" as="geometry">
                        <mxRectangle width="6" height="6" as="alternateBounds"/>
                    </mxGeometry>
                </mxCell>
                <mxCell id="LV0FwBpydXXZrUbya0PG-6700" value="" style="shape=partialRectangle;html=1;whiteSpace=wrap;connectable=0;strokeColor=inherit;overflow=hidden;fillColor=none;top=0;left=0;bottom=0;right=0;pointerEvents=1;" parent="LV0FwBpydXXZrUbya0PG-6691" vertex="1">
                    <mxGeometry x="48" width="6" height="6" as="geometry">
                        <mxRectangle width="6" height="6" as="alternateBounds"/>
                    </mxGeometry>
                </mxCell>
                <mxCell id="LV0FwBpydXXZrUbya0PG-6701" value="" style="shape=partialRectangle;html=1;whiteSpace=wrap;connectable=0;strokeColor=inherit;overflow=hidden;fillColor=none;top=0;left=0;bottom=0;right=0;pointerEvents=1;" parent="LV0FwBpydXXZrUbya0PG-6691" vertex="1">
                    <mxGeometry x="54" width="6" height="6" as="geometry">
                        <mxRectangle width="6" height="6" as="alternateBounds"/>
                    </mxGeometry>
                </mxCell>
                <mxCell id="LV0FwBpydXXZrUbya0PG-6702" value="" style="shape=partialRectangle;html=1;whiteSpace=wrap;connectable=0;strokeColor=inherit;overflow=hidden;fillColor=none;top=0;left=0;bottom=0;right=0;pointerEvents=1;" parent="LV0FwBpydXXZrUbya0PG-6691" vertex="1">
                    <mxGeometry x="60" width="6" height="6" as="geometry">
                        <mxRectangle width="6" height="6" as="alternateBounds"/>
                    </mxGeometry>
                </mxCell>
                <mxCell id="LV0FwBpydXXZrUbya0PG-6703" value="" style="shape=partialRectangle;html=1;whiteSpace=wrap;connectable=0;strokeColor=inherit;overflow=hidden;fillColor=none;top=0;left=0;bottom=0;right=0;pointerEvents=1;" parent="LV0FwBpydXXZrUbya0PG-6691" vertex="1">
                    <mxGeometry x="66" width="6" height="6" as="geometry">
                        <mxRectangle width="6" height="6" as="alternateBounds"/>
                    </mxGeometry>
                </mxCell>
                <mxCell id="LV0FwBpydXXZrUbya0PG-6704" value="" style="shape=partialRectangle;html=1;whiteSpace=wrap;connectable=0;strokeColor=inherit;overflow=hidden;fillColor=none;top=0;left=0;bottom=0;right=0;pointerEvents=1;" parent="LV0FwBpydXXZrUbya0PG-6691" vertex="1">
                    <mxGeometry x="72" width="6" height="6" as="geometry">
                        <mxRectangle width="6" height="6" as="alternateBounds"/>
                    </mxGeometry>
                </mxCell>
                <mxCell id="LV0FwBpydXXZrUbya0PG-6705" value="" style="shape=partialRectangle;html=1;whiteSpace=wrap;connectable=0;strokeColor=inherit;overflow=hidden;fillColor=none;top=0;left=0;bottom=0;right=0;pointerEvents=1;" parent="LV0FwBpydXXZrUbya0PG-6691" vertex="1">
                    <mxGeometry x="78" width="6" height="6" as="geometry">
                        <mxRectangle width="6" height="6" as="alternateBounds"/>
                    </mxGeometry>
                </mxCell>
                <mxCell id="LV0FwBpydXXZrUbya0PG-6706" value="" style="shape=partialRectangle;html=1;whiteSpace=wrap;connectable=0;strokeColor=inherit;overflow=hidden;fillColor=none;top=0;left=0;bottom=0;right=0;pointerEvents=1;" parent="LV0FwBpydXXZrUbya0PG-6691" vertex="1">
                    <mxGeometry x="84" width="6" height="6" as="geometry">
                        <mxRectangle width="6" height="6" as="alternateBounds"/>
                    </mxGeometry>
                </mxCell>
                <mxCell id="LV0FwBpydXXZrUbya0PG-6707" value="" style="shape=partialRectangle;html=1;whiteSpace=wrap;connectable=0;strokeColor=inherit;overflow=hidden;fillColor=none;top=0;left=0;bottom=0;right=0;pointerEvents=1;" parent="LV0FwBpydXXZrUbya0PG-6691" vertex="1">
                    <mxGeometry x="90" width="6" height="6" as="geometry">
                        <mxRectangle width="6" height="6" as="alternateBounds"/>
                    </mxGeometry>
                </mxCell>
                <mxCell id="LV0FwBpydXXZrUbya0PG-6708" value="" style="shape=partialRectangle;html=1;whiteSpace=wrap;connectable=0;strokeColor=inherit;overflow=hidden;fillColor=none;top=0;left=0;bottom=0;right=0;pointerEvents=1;" parent="LV0FwBpydXXZrUbya0PG-6691" vertex="1">
                    <mxGeometry x="96" width="6" height="6" as="geometry">
                        <mxRectangle width="6" height="6" as="alternateBounds"/>
                    </mxGeometry>
                </mxCell>
                <mxCell id="LV0FwBpydXXZrUbya0PG-6709" value="" style="shape=partialRectangle;html=1;whiteSpace=wrap;connectable=0;strokeColor=inherit;overflow=hidden;fillColor=none;top=0;left=0;bottom=0;right=0;pointerEvents=1;" parent="LV0FwBpydXXZrUbya0PG-6691" vertex="1">
                    <mxGeometry x="102" width="6" height="6" as="geometry">
                        <mxRectangle width="6" height="6" as="alternateBounds"/>
                    </mxGeometry>
                </mxCell>
                <mxCell id="LV0FwBpydXXZrUbya0PG-6710" value="" style="shape=partialRectangle;html=1;whiteSpace=wrap;connectable=0;strokeColor=inherit;overflow=hidden;fillColor=none;top=0;left=0;bottom=0;right=0;pointerEvents=1;" parent="LV0FwBpydXXZrUbya0PG-6691" vertex="1">
                    <mxGeometry x="108" width="6" height="6" as="geometry">
                        <mxRectangle width="6" height="6" as="alternateBounds"/>
                    </mxGeometry>
                </mxCell>
                <mxCell id="LV0FwBpydXXZrUbya0PG-6711" value="" style="shape=partialRectangle;html=1;whiteSpace=wrap;connectable=0;strokeColor=inherit;overflow=hidden;fillColor=none;top=0;left=0;bottom=0;right=0;pointerEvents=1;" parent="LV0FwBpydXXZrUbya0PG-6691" vertex="1">
                    <mxGeometry x="114" width="6" height="6" as="geometry">
                        <mxRectangle width="6" height="6" as="alternateBounds"/>
                    </mxGeometry>
                </mxCell>
                <mxCell id="LV0FwBpydXXZrUbya0PG-6712" value="" style="shape=tableRow;horizontal=0;startSize=0;swimlaneHead=0;swimlaneBody=0;strokeColor=inherit;top=0;left=0;bottom=0;right=0;collapsible=0;dropTarget=0;fillColor=none;points=[[0,0.5],[1,0.5]];portConstraint=eastwest;" parent="LV0FwBpydXXZrUbya0PG-6564" vertex="1">
                    <mxGeometry y="44" width="120" height="6" as="geometry"/>
                </mxCell>
                <mxCell id="LV0FwBpydXXZrUbya0PG-6713" value="" style="shape=partialRectangle;html=1;whiteSpace=wrap;connectable=0;strokeColor=inherit;overflow=hidden;fillColor=none;top=0;left=0;bottom=0;right=0;pointerEvents=1;" parent="LV0FwBpydXXZrUbya0PG-6712" vertex="1">
                    <mxGeometry width="6" height="6" as="geometry">
                        <mxRectangle width="6" height="6" as="alternateBounds"/>
                    </mxGeometry>
                </mxCell>
                <mxCell id="LV0FwBpydXXZrUbya0PG-6714" value="" style="shape=partialRectangle;html=1;whiteSpace=wrap;connectable=0;strokeColor=inherit;overflow=hidden;fillColor=none;top=0;left=0;bottom=0;right=0;pointerEvents=1;" parent="LV0FwBpydXXZrUbya0PG-6712" vertex="1">
                    <mxGeometry x="6" width="6" height="6" as="geometry">
                        <mxRectangle width="6" height="6" as="alternateBounds"/>
                    </mxGeometry>
                </mxCell>
                <mxCell id="LV0FwBpydXXZrUbya0PG-6715" value="" style="shape=partialRectangle;html=1;whiteSpace=wrap;connectable=0;strokeColor=inherit;overflow=hidden;fillColor=none;top=0;left=0;bottom=0;right=0;pointerEvents=1;" parent="LV0FwBpydXXZrUbya0PG-6712" vertex="1">
                    <mxGeometry x="12" width="6" height="6" as="geometry">
                        <mxRectangle width="6" height="6" as="alternateBounds"/>
                    </mxGeometry>
                </mxCell>
                <mxCell id="LV0FwBpydXXZrUbya0PG-6716" value="" style="shape=partialRectangle;html=1;whiteSpace=wrap;connectable=0;strokeColor=inherit;overflow=hidden;fillColor=none;top=0;left=0;bottom=0;right=0;pointerEvents=1;" parent="LV0FwBpydXXZrUbya0PG-6712" vertex="1">
                    <mxGeometry x="18" width="6" height="6" as="geometry">
                        <mxRectangle width="6" height="6" as="alternateBounds"/>
                    </mxGeometry>
                </mxCell>
                <mxCell id="LV0FwBpydXXZrUbya0PG-6717" value="" style="shape=partialRectangle;html=1;whiteSpace=wrap;connectable=0;strokeColor=inherit;overflow=hidden;fillColor=none;top=0;left=0;bottom=0;right=0;pointerEvents=1;" parent="LV0FwBpydXXZrUbya0PG-6712" vertex="1">
                    <mxGeometry x="24" width="6" height="6" as="geometry">
                        <mxRectangle width="6" height="6" as="alternateBounds"/>
                    </mxGeometry>
                </mxCell>
                <mxCell id="LV0FwBpydXXZrUbya0PG-6718" value="" style="shape=partialRectangle;html=1;whiteSpace=wrap;connectable=0;strokeColor=inherit;overflow=hidden;fillColor=none;top=0;left=0;bottom=0;right=0;pointerEvents=1;" parent="LV0FwBpydXXZrUbya0PG-6712" vertex="1">
                    <mxGeometry x="30" width="6" height="6" as="geometry">
                        <mxRectangle width="6" height="6" as="alternateBounds"/>
                    </mxGeometry>
                </mxCell>
                <mxCell id="LV0FwBpydXXZrUbya0PG-6719" value="" style="shape=partialRectangle;html=1;whiteSpace=wrap;connectable=0;strokeColor=inherit;overflow=hidden;fillColor=none;top=0;left=0;bottom=0;right=0;pointerEvents=1;" parent="LV0FwBpydXXZrUbya0PG-6712" vertex="1">
                    <mxGeometry x="36" width="6" height="6" as="geometry">
                        <mxRectangle width="6" height="6" as="alternateBounds"/>
                    </mxGeometry>
                </mxCell>
                <mxCell id="LV0FwBpydXXZrUbya0PG-6720" value="" style="shape=partialRectangle;html=1;whiteSpace=wrap;connectable=0;strokeColor=inherit;overflow=hidden;fillColor=none;top=0;left=0;bottom=0;right=0;pointerEvents=1;" parent="LV0FwBpydXXZrUbya0PG-6712" vertex="1">
                    <mxGeometry x="42" width="6" height="6" as="geometry">
                        <mxRectangle width="6" height="6" as="alternateBounds"/>
                    </mxGeometry>
                </mxCell>
                <mxCell id="LV0FwBpydXXZrUbya0PG-6721" value="" style="shape=partialRectangle;html=1;whiteSpace=wrap;connectable=0;strokeColor=inherit;overflow=hidden;fillColor=none;top=0;left=0;bottom=0;right=0;pointerEvents=1;" parent="LV0FwBpydXXZrUbya0PG-6712" vertex="1">
                    <mxGeometry x="48" width="6" height="6" as="geometry">
                        <mxRectangle width="6" height="6" as="alternateBounds"/>
                    </mxGeometry>
                </mxCell>
                <mxCell id="LV0FwBpydXXZrUbya0PG-6722" value="" style="shape=partialRectangle;html=1;whiteSpace=wrap;connectable=0;strokeColor=inherit;overflow=hidden;fillColor=none;top=0;left=0;bottom=0;right=0;pointerEvents=1;" parent="LV0FwBpydXXZrUbya0PG-6712" vertex="1">
                    <mxGeometry x="54" width="6" height="6" as="geometry">
                        <mxRectangle width="6" height="6" as="alternateBounds"/>
                    </mxGeometry>
                </mxCell>
                <mxCell id="LV0FwBpydXXZrUbya0PG-6723" value="" style="shape=partialRectangle;html=1;whiteSpace=wrap;connectable=0;strokeColor=inherit;overflow=hidden;fillColor=none;top=0;left=0;bottom=0;right=0;pointerEvents=1;" parent="LV0FwBpydXXZrUbya0PG-6712" vertex="1">
                    <mxGeometry x="60" width="6" height="6" as="geometry">
                        <mxRectangle width="6" height="6" as="alternateBounds"/>
                    </mxGeometry>
                </mxCell>
                <mxCell id="LV0FwBpydXXZrUbya0PG-6724" value="" style="shape=partialRectangle;html=1;whiteSpace=wrap;connectable=0;strokeColor=inherit;overflow=hidden;fillColor=none;top=0;left=0;bottom=0;right=0;pointerEvents=1;" parent="LV0FwBpydXXZrUbya0PG-6712" vertex="1">
                    <mxGeometry x="66" width="6" height="6" as="geometry">
                        <mxRectangle width="6" height="6" as="alternateBounds"/>
                    </mxGeometry>
                </mxCell>
                <mxCell id="LV0FwBpydXXZrUbya0PG-6725" value="" style="shape=partialRectangle;html=1;whiteSpace=wrap;connectable=0;strokeColor=inherit;overflow=hidden;fillColor=none;top=0;left=0;bottom=0;right=0;pointerEvents=1;" parent="LV0FwBpydXXZrUbya0PG-6712" vertex="1">
                    <mxGeometry x="72" width="6" height="6" as="geometry">
                        <mxRectangle width="6" height="6" as="alternateBounds"/>
                    </mxGeometry>
                </mxCell>
                <mxCell id="LV0FwBpydXXZrUbya0PG-6726" value="" style="shape=partialRectangle;html=1;whiteSpace=wrap;connectable=0;strokeColor=inherit;overflow=hidden;fillColor=none;top=0;left=0;bottom=0;right=0;pointerEvents=1;" parent="LV0FwBpydXXZrUbya0PG-6712" vertex="1">
                    <mxGeometry x="78" width="6" height="6" as="geometry">
                        <mxRectangle width="6" height="6" as="alternateBounds"/>
                    </mxGeometry>
                </mxCell>
                <mxCell id="LV0FwBpydXXZrUbya0PG-6727" value="" style="shape=partialRectangle;html=1;whiteSpace=wrap;connectable=0;strokeColor=inherit;overflow=hidden;fillColor=none;top=0;left=0;bottom=0;right=0;pointerEvents=1;" parent="LV0FwBpydXXZrUbya0PG-6712" vertex="1">
                    <mxGeometry x="84" width="6" height="6" as="geometry">
                        <mxRectangle width="6" height="6" as="alternateBounds"/>
                    </mxGeometry>
                </mxCell>
                <mxCell id="LV0FwBpydXXZrUbya0PG-6728" value="" style="shape=partialRectangle;html=1;whiteSpace=wrap;connectable=0;strokeColor=inherit;overflow=hidden;fillColor=none;top=0;left=0;bottom=0;right=0;pointerEvents=1;" parent="LV0FwBpydXXZrUbya0PG-6712" vertex="1">
                    <mxGeometry x="90" width="6" height="6" as="geometry">
                        <mxRectangle width="6" height="6" as="alternateBounds"/>
                    </mxGeometry>
                </mxCell>
                <mxCell id="LV0FwBpydXXZrUbya0PG-6729" value="" style="shape=partialRectangle;html=1;whiteSpace=wrap;connectable=0;strokeColor=inherit;overflow=hidden;fillColor=none;top=0;left=0;bottom=0;right=0;pointerEvents=1;" parent="LV0FwBpydXXZrUbya0PG-6712" vertex="1">
                    <mxGeometry x="96" width="6" height="6" as="geometry">
                        <mxRectangle width="6" height="6" as="alternateBounds"/>
                    </mxGeometry>
                </mxCell>
                <mxCell id="LV0FwBpydXXZrUbya0PG-6730" value="" style="shape=partialRectangle;html=1;whiteSpace=wrap;connectable=0;strokeColor=inherit;overflow=hidden;fillColor=none;top=0;left=0;bottom=0;right=0;pointerEvents=1;" parent="LV0FwBpydXXZrUbya0PG-6712" vertex="1">
                    <mxGeometry x="102" width="6" height="6" as="geometry">
                        <mxRectangle width="6" height="6" as="alternateBounds"/>
                    </mxGeometry>
                </mxCell>
                <mxCell id="LV0FwBpydXXZrUbya0PG-6731" value="" style="shape=partialRectangle;html=1;whiteSpace=wrap;connectable=0;strokeColor=inherit;overflow=hidden;fillColor=none;top=0;left=0;bottom=0;right=0;pointerEvents=1;" parent="LV0FwBpydXXZrUbya0PG-6712" vertex="1">
                    <mxGeometry x="108" width="6" height="6" as="geometry">
                        <mxRectangle width="6" height="6" as="alternateBounds"/>
                    </mxGeometry>
                </mxCell>
                <mxCell id="LV0FwBpydXXZrUbya0PG-6732" value="" style="shape=partialRectangle;html=1;whiteSpace=wrap;connectable=0;strokeColor=inherit;overflow=hidden;fillColor=none;top=0;left=0;bottom=0;right=0;pointerEvents=1;" parent="LV0FwBpydXXZrUbya0PG-6712" vertex="1">
                    <mxGeometry x="114" width="6" height="6" as="geometry">
                        <mxRectangle width="6" height="6" as="alternateBounds"/>
                    </mxGeometry>
                </mxCell>
                <mxCell id="5952" value="" style="rounded=0;whiteSpace=wrap;html=1;strokeColor=none;fillColor=#9C2A44;" vertex="1" parent="1">
                    <mxGeometry x="570" y="46" width="130" height="85" as="geometry"/>
                </mxCell>
                <mxCell id="LV0FwBpydXXZrUbya0PG-5974" value="" style="endArrow=classic;startArrow=classic;html=1;rounded=0;entryX=1;entryY=0.5;entryDx=0;entryDy=0;strokeWidth=2;exitX=0;exitY=0.5;exitDx=0;exitDy=0;fontColor=#FFFFFF;" parent="1" target="UvHuP5o6jSuoLTm0AUZA-5950" edge="1" source="UvHuP5o6jSuoLTm0AUZA-5961">
                    <mxGeometry width="50" height="50" relative="1" as="geometry">
                        <mxPoint x="220" y="229" as="sourcePoint"/>
                        <mxPoint x="109.5" y="180" as="targetPoint"/>
                    </mxGeometry>
                </mxCell>
                <mxCell id="UvHuP5o6jSuoLTm0AUZA-5957" value="&lt;font face=&quot;Helvetica&quot;&gt;GPU&lt;br&gt;&lt;/font&gt;" style="text;html=1;strokeColor=none;fillColor=none;align=center;verticalAlign=middle;whiteSpace=wrap;rounded=0;fontSize=17;fontColor=#FFFFFF;" parent="1" vertex="1">
                    <mxGeometry x="220" y="46" width="140" height="27" as="geometry"/>
                </mxCell>
                <mxCell id="5954" value="" style="shape=table;startSize=0;container=1;collapsible=0;childLayout=tableLayout;fillColor=#C23555;strokeColor=#9C2A44;" vertex="1" parent="1">
                    <mxGeometry x="575" y="73" width="120" height="50" as="geometry"/>
                </mxCell>
                <mxCell id="5955" value="" style="shape=tableRow;horizontal=0;startSize=0;swimlaneHead=0;swimlaneBody=0;strokeColor=inherit;top=0;left=0;bottom=0;right=0;collapsible=0;dropTarget=0;fillColor=none;points=[[0,0.5],[1,0.5]];portConstraint=eastwest;" vertex="1" parent="5954">
                    <mxGeometry width="120" height="6" as="geometry"/>
                </mxCell>
                <mxCell id="5956" value="" style="shape=partialRectangle;html=1;whiteSpace=wrap;connectable=0;strokeColor=inherit;overflow=hidden;fillColor=none;top=0;left=0;bottom=0;right=0;pointerEvents=1;" vertex="1" parent="5955">
                    <mxGeometry width="6" height="6" as="geometry">
                        <mxRectangle width="6" height="6" as="alternateBounds"/>
                    </mxGeometry>
                </mxCell>
                <mxCell id="5957" value="" style="shape=partialRectangle;html=1;whiteSpace=wrap;connectable=0;strokeColor=inherit;overflow=hidden;fillColor=none;top=0;left=0;bottom=0;right=0;pointerEvents=1;" vertex="1" parent="5955">
                    <mxGeometry x="6" width="6" height="6" as="geometry">
                        <mxRectangle width="6" height="6" as="alternateBounds"/>
                    </mxGeometry>
                </mxCell>
                <mxCell id="5958" value="" style="shape=partialRectangle;html=1;whiteSpace=wrap;connectable=0;strokeColor=inherit;overflow=hidden;fillColor=none;top=0;left=0;bottom=0;right=0;pointerEvents=1;" vertex="1" parent="5955">
                    <mxGeometry x="12" width="6" height="6" as="geometry">
                        <mxRectangle width="6" height="6" as="alternateBounds"/>
                    </mxGeometry>
                </mxCell>
                <mxCell id="5959" value="" style="shape=partialRectangle;html=1;whiteSpace=wrap;connectable=0;strokeColor=inherit;overflow=hidden;fillColor=none;top=0;left=0;bottom=0;right=0;pointerEvents=1;" vertex="1" parent="5955">
                    <mxGeometry x="18" width="6" height="6" as="geometry">
                        <mxRectangle width="6" height="6" as="alternateBounds"/>
                    </mxGeometry>
                </mxCell>
                <mxCell id="5960" value="" style="shape=partialRectangle;html=1;whiteSpace=wrap;connectable=0;strokeColor=inherit;overflow=hidden;fillColor=none;top=0;left=0;bottom=0;right=0;pointerEvents=1;" vertex="1" parent="5955">
                    <mxGeometry x="24" width="6" height="6" as="geometry">
                        <mxRectangle width="6" height="6" as="alternateBounds"/>
                    </mxGeometry>
                </mxCell>
                <mxCell id="5961" value="" style="shape=partialRectangle;html=1;whiteSpace=wrap;connectable=0;strokeColor=inherit;overflow=hidden;fillColor=none;top=0;left=0;bottom=0;right=0;pointerEvents=1;" vertex="1" parent="5955">
                    <mxGeometry x="30" width="6" height="6" as="geometry">
                        <mxRectangle width="6" height="6" as="alternateBounds"/>
                    </mxGeometry>
                </mxCell>
                <mxCell id="5962" value="" style="shape=partialRectangle;html=1;whiteSpace=wrap;connectable=0;strokeColor=inherit;overflow=hidden;fillColor=none;top=0;left=0;bottom=0;right=0;pointerEvents=1;" vertex="1" parent="5955">
                    <mxGeometry x="36" width="6" height="6" as="geometry">
                        <mxRectangle width="6" height="6" as="alternateBounds"/>
                    </mxGeometry>
                </mxCell>
                <mxCell id="5963" value="" style="shape=partialRectangle;html=1;whiteSpace=wrap;connectable=0;strokeColor=inherit;overflow=hidden;fillColor=none;top=0;left=0;bottom=0;right=0;pointerEvents=1;" vertex="1" parent="5955">
                    <mxGeometry x="42" width="6" height="6" as="geometry">
                        <mxRectangle width="6" height="6" as="alternateBounds"/>
                    </mxGeometry>
                </mxCell>
                <mxCell id="5964" value="" style="shape=partialRectangle;html=1;whiteSpace=wrap;connectable=0;strokeColor=inherit;overflow=hidden;fillColor=none;top=0;left=0;bottom=0;right=0;pointerEvents=1;" vertex="1" parent="5955">
                    <mxGeometry x="48" width="6" height="6" as="geometry">
                        <mxRectangle width="6" height="6" as="alternateBounds"/>
                    </mxGeometry>
                </mxCell>
                <mxCell id="5965" value="" style="shape=partialRectangle;html=1;whiteSpace=wrap;connectable=0;strokeColor=inherit;overflow=hidden;fillColor=none;top=0;left=0;bottom=0;right=0;pointerEvents=1;" vertex="1" parent="5955">
                    <mxGeometry x="54" width="6" height="6" as="geometry">
                        <mxRectangle width="6" height="6" as="alternateBounds"/>
                    </mxGeometry>
                </mxCell>
                <mxCell id="5966" value="" style="shape=partialRectangle;html=1;whiteSpace=wrap;connectable=0;strokeColor=inherit;overflow=hidden;fillColor=none;top=0;left=0;bottom=0;right=0;pointerEvents=1;" vertex="1" parent="5955">
                    <mxGeometry x="60" width="6" height="6" as="geometry">
                        <mxRectangle width="6" height="6" as="alternateBounds"/>
                    </mxGeometry>
                </mxCell>
                <mxCell id="5967" value="" style="shape=partialRectangle;html=1;whiteSpace=wrap;connectable=0;strokeColor=inherit;overflow=hidden;fillColor=none;top=0;left=0;bottom=0;right=0;pointerEvents=1;" vertex="1" parent="5955">
                    <mxGeometry x="66" width="6" height="6" as="geometry">
                        <mxRectangle width="6" height="6" as="alternateBounds"/>
                    </mxGeometry>
                </mxCell>
                <mxCell id="5968" value="" style="shape=partialRectangle;html=1;whiteSpace=wrap;connectable=0;strokeColor=inherit;overflow=hidden;fillColor=none;top=0;left=0;bottom=0;right=0;pointerEvents=1;" vertex="1" parent="5955">
                    <mxGeometry x="72" width="6" height="6" as="geometry">
                        <mxRectangle width="6" height="6" as="alternateBounds"/>
                    </mxGeometry>
                </mxCell>
                <mxCell id="5969" value="" style="shape=partialRectangle;html=1;whiteSpace=wrap;connectable=0;strokeColor=inherit;overflow=hidden;fillColor=none;top=0;left=0;bottom=0;right=0;pointerEvents=1;" vertex="1" parent="5955">
                    <mxGeometry x="78" width="6" height="6" as="geometry">
                        <mxRectangle width="6" height="6" as="alternateBounds"/>
                    </mxGeometry>
                </mxCell>
                <mxCell id="5970" value="" style="shape=partialRectangle;html=1;whiteSpace=wrap;connectable=0;strokeColor=inherit;overflow=hidden;fillColor=none;top=0;left=0;bottom=0;right=0;pointerEvents=1;" vertex="1" parent="5955">
                    <mxGeometry x="84" width="6" height="6" as="geometry">
                        <mxRectangle width="6" height="6" as="alternateBounds"/>
                    </mxGeometry>
                </mxCell>
                <mxCell id="5971" value="" style="shape=partialRectangle;html=1;whiteSpace=wrap;connectable=0;strokeColor=inherit;overflow=hidden;fillColor=none;top=0;left=0;bottom=0;right=0;pointerEvents=1;" vertex="1" parent="5955">
                    <mxGeometry x="90" width="6" height="6" as="geometry">
                        <mxRectangle width="6" height="6" as="alternateBounds"/>
                    </mxGeometry>
                </mxCell>
                <mxCell id="5972" value="" style="shape=partialRectangle;html=1;whiteSpace=wrap;connectable=0;strokeColor=inherit;overflow=hidden;fillColor=none;top=0;left=0;bottom=0;right=0;pointerEvents=1;" vertex="1" parent="5955">
                    <mxGeometry x="96" width="6" height="6" as="geometry">
                        <mxRectangle width="6" height="6" as="alternateBounds"/>
                    </mxGeometry>
                </mxCell>
                <mxCell id="5973" value="" style="shape=partialRectangle;html=1;whiteSpace=wrap;connectable=0;strokeColor=inherit;overflow=hidden;fillColor=none;top=0;left=0;bottom=0;right=0;pointerEvents=1;" vertex="1" parent="5955">
                    <mxGeometry x="102" width="6" height="6" as="geometry">
                        <mxRectangle width="6" height="6" as="alternateBounds"/>
                    </mxGeometry>
                </mxCell>
                <mxCell id="5974" value="" style="shape=partialRectangle;html=1;whiteSpace=wrap;connectable=0;strokeColor=inherit;overflow=hidden;fillColor=none;top=0;left=0;bottom=0;right=0;pointerEvents=1;" vertex="1" parent="5955">
                    <mxGeometry x="108" width="6" height="6" as="geometry">
                        <mxRectangle width="6" height="6" as="alternateBounds"/>
                    </mxGeometry>
                </mxCell>
                <mxCell id="5975" value="" style="shape=partialRectangle;html=1;whiteSpace=wrap;connectable=0;strokeColor=inherit;overflow=hidden;fillColor=none;top=0;left=0;bottom=0;right=0;pointerEvents=1;" vertex="1" parent="5955">
                    <mxGeometry x="114" width="6" height="6" as="geometry">
                        <mxRectangle width="6" height="6" as="alternateBounds"/>
                    </mxGeometry>
                </mxCell>
                <mxCell id="5976" value="" style="shape=tableRow;horizontal=0;startSize=0;swimlaneHead=0;swimlaneBody=0;strokeColor=inherit;top=0;left=0;bottom=0;right=0;collapsible=0;dropTarget=0;fillColor=none;points=[[0,0.5],[1,0.5]];portConstraint=eastwest;" vertex="1" parent="5954">
                    <mxGeometry y="6" width="120" height="7" as="geometry"/>
                </mxCell>
                <mxCell id="5977" value="" style="shape=partialRectangle;html=1;whiteSpace=wrap;connectable=0;strokeColor=inherit;overflow=hidden;fillColor=none;top=0;left=0;bottom=0;right=0;pointerEvents=1;" vertex="1" parent="5976">
                    <mxGeometry width="6" height="7" as="geometry">
                        <mxRectangle width="6" height="7" as="alternateBounds"/>
                    </mxGeometry>
                </mxCell>
                <mxCell id="5978" value="" style="shape=partialRectangle;html=1;whiteSpace=wrap;connectable=0;strokeColor=inherit;overflow=hidden;fillColor=none;top=0;left=0;bottom=0;right=0;pointerEvents=1;" vertex="1" parent="5976">
                    <mxGeometry x="6" width="6" height="7" as="geometry">
                        <mxRectangle width="6" height="7" as="alternateBounds"/>
                    </mxGeometry>
                </mxCell>
                <mxCell id="5979" value="" style="shape=partialRectangle;html=1;whiteSpace=wrap;connectable=0;strokeColor=inherit;overflow=hidden;fillColor=none;top=0;left=0;bottom=0;right=0;pointerEvents=1;" vertex="1" parent="5976">
                    <mxGeometry x="12" width="6" height="7" as="geometry">
                        <mxRectangle width="6" height="7" as="alternateBounds"/>
                    </mxGeometry>
                </mxCell>
                <mxCell id="5980" value="" style="shape=partialRectangle;html=1;whiteSpace=wrap;connectable=0;strokeColor=inherit;overflow=hidden;fillColor=none;top=0;left=0;bottom=0;right=0;pointerEvents=1;" vertex="1" parent="5976">
                    <mxGeometry x="18" width="6" height="7" as="geometry">
                        <mxRectangle width="6" height="7" as="alternateBounds"/>
                    </mxGeometry>
                </mxCell>
                <mxCell id="5981" value="" style="shape=partialRectangle;html=1;whiteSpace=wrap;connectable=0;strokeColor=inherit;overflow=hidden;fillColor=none;top=0;left=0;bottom=0;right=0;pointerEvents=1;" vertex="1" parent="5976">
                    <mxGeometry x="24" width="6" height="7" as="geometry">
                        <mxRectangle width="6" height="7" as="alternateBounds"/>
                    </mxGeometry>
                </mxCell>
                <mxCell id="5982" value="" style="shape=partialRectangle;html=1;whiteSpace=wrap;connectable=0;strokeColor=inherit;overflow=hidden;fillColor=none;top=0;left=0;bottom=0;right=0;pointerEvents=1;" vertex="1" parent="5976">
                    <mxGeometry x="30" width="6" height="7" as="geometry">
                        <mxRectangle width="6" height="7" as="alternateBounds"/>
                    </mxGeometry>
                </mxCell>
                <mxCell id="5983" value="" style="shape=partialRectangle;html=1;whiteSpace=wrap;connectable=0;strokeColor=inherit;overflow=hidden;fillColor=none;top=0;left=0;bottom=0;right=0;pointerEvents=1;" vertex="1" parent="5976">
                    <mxGeometry x="36" width="6" height="7" as="geometry">
                        <mxRectangle width="6" height="7" as="alternateBounds"/>
                    </mxGeometry>
                </mxCell>
                <mxCell id="5984" value="" style="shape=partialRectangle;html=1;whiteSpace=wrap;connectable=0;strokeColor=inherit;overflow=hidden;fillColor=none;top=0;left=0;bottom=0;right=0;pointerEvents=1;" vertex="1" parent="5976">
                    <mxGeometry x="42" width="6" height="7" as="geometry">
                        <mxRectangle width="6" height="7" as="alternateBounds"/>
                    </mxGeometry>
                </mxCell>
                <mxCell id="5985" value="" style="shape=partialRectangle;html=1;whiteSpace=wrap;connectable=0;strokeColor=inherit;overflow=hidden;fillColor=none;top=0;left=0;bottom=0;right=0;pointerEvents=1;" vertex="1" parent="5976">
                    <mxGeometry x="48" width="6" height="7" as="geometry">
                        <mxRectangle width="6" height="7" as="alternateBounds"/>
                    </mxGeometry>
                </mxCell>
                <mxCell id="5986" value="" style="shape=partialRectangle;html=1;whiteSpace=wrap;connectable=0;strokeColor=inherit;overflow=hidden;fillColor=none;top=0;left=0;bottom=0;right=0;pointerEvents=1;" vertex="1" parent="5976">
                    <mxGeometry x="54" width="6" height="7" as="geometry">
                        <mxRectangle width="6" height="7" as="alternateBounds"/>
                    </mxGeometry>
                </mxCell>
                <mxCell id="5987" value="" style="shape=partialRectangle;html=1;whiteSpace=wrap;connectable=0;strokeColor=inherit;overflow=hidden;fillColor=none;top=0;left=0;bottom=0;right=0;pointerEvents=1;" vertex="1" parent="5976">
                    <mxGeometry x="60" width="6" height="7" as="geometry">
                        <mxRectangle width="6" height="7" as="alternateBounds"/>
                    </mxGeometry>
                </mxCell>
                <mxCell id="5988" value="" style="shape=partialRectangle;html=1;whiteSpace=wrap;connectable=0;strokeColor=inherit;overflow=hidden;fillColor=none;top=0;left=0;bottom=0;right=0;pointerEvents=1;" vertex="1" parent="5976">
                    <mxGeometry x="66" width="6" height="7" as="geometry">
                        <mxRectangle width="6" height="7" as="alternateBounds"/>
                    </mxGeometry>
                </mxCell>
                <mxCell id="5989" value="" style="shape=partialRectangle;html=1;whiteSpace=wrap;connectable=0;strokeColor=inherit;overflow=hidden;fillColor=none;top=0;left=0;bottom=0;right=0;pointerEvents=1;" vertex="1" parent="5976">
                    <mxGeometry x="72" width="6" height="7" as="geometry">
                        <mxRectangle width="6" height="7" as="alternateBounds"/>
                    </mxGeometry>
                </mxCell>
                <mxCell id="5990" value="" style="shape=partialRectangle;html=1;whiteSpace=wrap;connectable=0;strokeColor=inherit;overflow=hidden;fillColor=none;top=0;left=0;bottom=0;right=0;pointerEvents=1;" vertex="1" parent="5976">
                    <mxGeometry x="78" width="6" height="7" as="geometry">
                        <mxRectangle width="6" height="7" as="alternateBounds"/>
                    </mxGeometry>
                </mxCell>
                <mxCell id="5991" value="" style="shape=partialRectangle;html=1;whiteSpace=wrap;connectable=0;strokeColor=inherit;overflow=hidden;fillColor=none;top=0;left=0;bottom=0;right=0;pointerEvents=1;" vertex="1" parent="5976">
                    <mxGeometry x="84" width="6" height="7" as="geometry">
                        <mxRectangle width="6" height="7" as="alternateBounds"/>
                    </mxGeometry>
                </mxCell>
                <mxCell id="5992" value="" style="shape=partialRectangle;html=1;whiteSpace=wrap;connectable=0;strokeColor=inherit;overflow=hidden;fillColor=none;top=0;left=0;bottom=0;right=0;pointerEvents=1;" vertex="1" parent="5976">
                    <mxGeometry x="90" width="6" height="7" as="geometry">
                        <mxRectangle width="6" height="7" as="alternateBounds"/>
                    </mxGeometry>
                </mxCell>
                <mxCell id="5993" value="" style="shape=partialRectangle;html=1;whiteSpace=wrap;connectable=0;strokeColor=inherit;overflow=hidden;fillColor=none;top=0;left=0;bottom=0;right=0;pointerEvents=1;" vertex="1" parent="5976">
                    <mxGeometry x="96" width="6" height="7" as="geometry">
                        <mxRectangle width="6" height="7" as="alternateBounds"/>
                    </mxGeometry>
                </mxCell>
                <mxCell id="5994" value="" style="shape=partialRectangle;html=1;whiteSpace=wrap;connectable=0;strokeColor=inherit;overflow=hidden;fillColor=none;top=0;left=0;bottom=0;right=0;pointerEvents=1;" vertex="1" parent="5976">
                    <mxGeometry x="102" width="6" height="7" as="geometry">
                        <mxRectangle width="6" height="7" as="alternateBounds"/>
                    </mxGeometry>
                </mxCell>
                <mxCell id="5995" value="" style="shape=partialRectangle;html=1;whiteSpace=wrap;connectable=0;strokeColor=inherit;overflow=hidden;fillColor=none;top=0;left=0;bottom=0;right=0;pointerEvents=1;" vertex="1" parent="5976">
                    <mxGeometry x="108" width="6" height="7" as="geometry">
                        <mxRectangle width="6" height="7" as="alternateBounds"/>
                    </mxGeometry>
                </mxCell>
                <mxCell id="5996" value="" style="shape=partialRectangle;html=1;whiteSpace=wrap;connectable=0;strokeColor=inherit;overflow=hidden;fillColor=none;top=0;left=0;bottom=0;right=0;pointerEvents=1;" vertex="1" parent="5976">
                    <mxGeometry x="114" width="6" height="7" as="geometry">
                        <mxRectangle width="6" height="7" as="alternateBounds"/>
                    </mxGeometry>
                </mxCell>
                <mxCell id="5997" value="" style="shape=tableRow;horizontal=0;startSize=0;swimlaneHead=0;swimlaneBody=0;strokeColor=inherit;top=0;left=0;bottom=0;right=0;collapsible=0;dropTarget=0;fillColor=none;points=[[0,0.5],[1,0.5]];portConstraint=eastwest;" vertex="1" parent="5954">
                    <mxGeometry y="13" width="120" height="6" as="geometry"/>
                </mxCell>
                <mxCell id="5998" value="" style="shape=partialRectangle;html=1;whiteSpace=wrap;connectable=0;strokeColor=inherit;overflow=hidden;fillColor=none;top=0;left=0;bottom=0;right=0;pointerEvents=1;" vertex="1" parent="5997">
                    <mxGeometry width="6" height="6" as="geometry">
                        <mxRectangle width="6" height="6" as="alternateBounds"/>
                    </mxGeometry>
                </mxCell>
                <mxCell id="5999" value="" style="shape=partialRectangle;html=1;whiteSpace=wrap;connectable=0;strokeColor=inherit;overflow=hidden;fillColor=none;top=0;left=0;bottom=0;right=0;pointerEvents=1;" vertex="1" parent="5997">
                    <mxGeometry x="6" width="6" height="6" as="geometry">
                        <mxRectangle width="6" height="6" as="alternateBounds"/>
                    </mxGeometry>
                </mxCell>
                <mxCell id="6000" value="" style="shape=partialRectangle;html=1;whiteSpace=wrap;connectable=0;strokeColor=inherit;overflow=hidden;fillColor=none;top=0;left=0;bottom=0;right=0;pointerEvents=1;" vertex="1" parent="5997">
                    <mxGeometry x="12" width="6" height="6" as="geometry">
                        <mxRectangle width="6" height="6" as="alternateBounds"/>
                    </mxGeometry>
                </mxCell>
                <mxCell id="6001" value="" style="shape=partialRectangle;html=1;whiteSpace=wrap;connectable=0;strokeColor=inherit;overflow=hidden;fillColor=none;top=0;left=0;bottom=0;right=0;pointerEvents=1;" vertex="1" parent="5997">
                    <mxGeometry x="18" width="6" height="6" as="geometry">
                        <mxRectangle width="6" height="6" as="alternateBounds"/>
                    </mxGeometry>
                </mxCell>
                <mxCell id="6002" value="" style="shape=partialRectangle;html=1;whiteSpace=wrap;connectable=0;strokeColor=inherit;overflow=hidden;fillColor=none;top=0;left=0;bottom=0;right=0;pointerEvents=1;" vertex="1" parent="5997">
                    <mxGeometry x="24" width="6" height="6" as="geometry">
                        <mxRectangle width="6" height="6" as="alternateBounds"/>
                    </mxGeometry>
                </mxCell>
                <mxCell id="6003" value="" style="shape=partialRectangle;html=1;whiteSpace=wrap;connectable=0;strokeColor=inherit;overflow=hidden;fillColor=none;top=0;left=0;bottom=0;right=0;pointerEvents=1;" vertex="1" parent="5997">
                    <mxGeometry x="30" width="6" height="6" as="geometry">
                        <mxRectangle width="6" height="6" as="alternateBounds"/>
                    </mxGeometry>
                </mxCell>
                <mxCell id="6004" value="" style="shape=partialRectangle;html=1;whiteSpace=wrap;connectable=0;strokeColor=inherit;overflow=hidden;fillColor=none;top=0;left=0;bottom=0;right=0;pointerEvents=1;" vertex="1" parent="5997">
                    <mxGeometry x="36" width="6" height="6" as="geometry">
                        <mxRectangle width="6" height="6" as="alternateBounds"/>
                    </mxGeometry>
                </mxCell>
                <mxCell id="6005" value="" style="shape=partialRectangle;html=1;whiteSpace=wrap;connectable=0;strokeColor=inherit;overflow=hidden;fillColor=none;top=0;left=0;bottom=0;right=0;pointerEvents=1;" vertex="1" parent="5997">
                    <mxGeometry x="42" width="6" height="6" as="geometry">
                        <mxRectangle width="6" height="6" as="alternateBounds"/>
                    </mxGeometry>
                </mxCell>
                <mxCell id="6006" value="" style="shape=partialRectangle;html=1;whiteSpace=wrap;connectable=0;strokeColor=inherit;overflow=hidden;fillColor=none;top=0;left=0;bottom=0;right=0;pointerEvents=1;" vertex="1" parent="5997">
                    <mxGeometry x="48" width="6" height="6" as="geometry">
                        <mxRectangle width="6" height="6" as="alternateBounds"/>
                    </mxGeometry>
                </mxCell>
                <mxCell id="6007" value="" style="shape=partialRectangle;html=1;whiteSpace=wrap;connectable=0;strokeColor=inherit;overflow=hidden;fillColor=none;top=0;left=0;bottom=0;right=0;pointerEvents=1;" vertex="1" parent="5997">
                    <mxGeometry x="54" width="6" height="6" as="geometry">
                        <mxRectangle width="6" height="6" as="alternateBounds"/>
                    </mxGeometry>
                </mxCell>
                <mxCell id="6008" value="" style="shape=partialRectangle;html=1;whiteSpace=wrap;connectable=0;strokeColor=inherit;overflow=hidden;fillColor=none;top=0;left=0;bottom=0;right=0;pointerEvents=1;" vertex="1" parent="5997">
                    <mxGeometry x="60" width="6" height="6" as="geometry">
                        <mxRectangle width="6" height="6" as="alternateBounds"/>
                    </mxGeometry>
                </mxCell>
                <mxCell id="6009" value="" style="shape=partialRectangle;html=1;whiteSpace=wrap;connectable=0;strokeColor=inherit;overflow=hidden;fillColor=none;top=0;left=0;bottom=0;right=0;pointerEvents=1;" vertex="1" parent="5997">
                    <mxGeometry x="66" width="6" height="6" as="geometry">
                        <mxRectangle width="6" height="6" as="alternateBounds"/>
                    </mxGeometry>
                </mxCell>
                <mxCell id="6010" value="" style="shape=partialRectangle;html=1;whiteSpace=wrap;connectable=0;strokeColor=inherit;overflow=hidden;fillColor=none;top=0;left=0;bottom=0;right=0;pointerEvents=1;" vertex="1" parent="5997">
                    <mxGeometry x="72" width="6" height="6" as="geometry">
                        <mxRectangle width="6" height="6" as="alternateBounds"/>
                    </mxGeometry>
                </mxCell>
                <mxCell id="6011" value="" style="shape=partialRectangle;html=1;whiteSpace=wrap;connectable=0;strokeColor=inherit;overflow=hidden;fillColor=none;top=0;left=0;bottom=0;right=0;pointerEvents=1;" vertex="1" parent="5997">
                    <mxGeometry x="78" width="6" height="6" as="geometry">
                        <mxRectangle width="6" height="6" as="alternateBounds"/>
                    </mxGeometry>
                </mxCell>
                <mxCell id="6012" value="" style="shape=partialRectangle;html=1;whiteSpace=wrap;connectable=0;strokeColor=inherit;overflow=hidden;fillColor=none;top=0;left=0;bottom=0;right=0;pointerEvents=1;" vertex="1" parent="5997">
                    <mxGeometry x="84" width="6" height="6" as="geometry">
                        <mxRectangle width="6" height="6" as="alternateBounds"/>
                    </mxGeometry>
                </mxCell>
                <mxCell id="6013" value="" style="shape=partialRectangle;html=1;whiteSpace=wrap;connectable=0;strokeColor=inherit;overflow=hidden;fillColor=none;top=0;left=0;bottom=0;right=0;pointerEvents=1;" vertex="1" parent="5997">
                    <mxGeometry x="90" width="6" height="6" as="geometry">
                        <mxRectangle width="6" height="6" as="alternateBounds"/>
                    </mxGeometry>
                </mxCell>
                <mxCell id="6014" value="" style="shape=partialRectangle;html=1;whiteSpace=wrap;connectable=0;strokeColor=inherit;overflow=hidden;fillColor=none;top=0;left=0;bottom=0;right=0;pointerEvents=1;" vertex="1" parent="5997">
                    <mxGeometry x="96" width="6" height="6" as="geometry">
                        <mxRectangle width="6" height="6" as="alternateBounds"/>
                    </mxGeometry>
                </mxCell>
                <mxCell id="6015" value="" style="shape=partialRectangle;html=1;whiteSpace=wrap;connectable=0;strokeColor=inherit;overflow=hidden;fillColor=none;top=0;left=0;bottom=0;right=0;pointerEvents=1;" vertex="1" parent="5997">
                    <mxGeometry x="102" width="6" height="6" as="geometry">
                        <mxRectangle width="6" height="6" as="alternateBounds"/>
                    </mxGeometry>
                </mxCell>
                <mxCell id="6016" value="" style="shape=partialRectangle;html=1;whiteSpace=wrap;connectable=0;strokeColor=inherit;overflow=hidden;fillColor=none;top=0;left=0;bottom=0;right=0;pointerEvents=1;" vertex="1" parent="5997">
                    <mxGeometry x="108" width="6" height="6" as="geometry">
                        <mxRectangle width="6" height="6" as="alternateBounds"/>
                    </mxGeometry>
                </mxCell>
                <mxCell id="6017" value="" style="shape=partialRectangle;html=1;whiteSpace=wrap;connectable=0;strokeColor=inherit;overflow=hidden;fillColor=none;top=0;left=0;bottom=0;right=0;pointerEvents=1;" vertex="1" parent="5997">
                    <mxGeometry x="114" width="6" height="6" as="geometry">
                        <mxRectangle width="6" height="6" as="alternateBounds"/>
                    </mxGeometry>
                </mxCell>
                <mxCell id="6018" value="" style="shape=tableRow;horizontal=0;startSize=0;swimlaneHead=0;swimlaneBody=0;strokeColor=inherit;top=0;left=0;bottom=0;right=0;collapsible=0;dropTarget=0;fillColor=none;points=[[0,0.5],[1,0.5]];portConstraint=eastwest;" vertex="1" parent="5954">
                    <mxGeometry y="19" width="120" height="6" as="geometry"/>
                </mxCell>
                <mxCell id="6019" value="" style="shape=partialRectangle;html=1;whiteSpace=wrap;connectable=0;strokeColor=inherit;overflow=hidden;fillColor=none;top=0;left=0;bottom=0;right=0;pointerEvents=1;" vertex="1" parent="6018">
                    <mxGeometry width="6" height="6" as="geometry">
                        <mxRectangle width="6" height="6" as="alternateBounds"/>
                    </mxGeometry>
                </mxCell>
                <mxCell id="6020" value="" style="shape=partialRectangle;html=1;whiteSpace=wrap;connectable=0;strokeColor=inherit;overflow=hidden;fillColor=none;top=0;left=0;bottom=0;right=0;pointerEvents=1;" vertex="1" parent="6018">
                    <mxGeometry x="6" width="6" height="6" as="geometry">
                        <mxRectangle width="6" height="6" as="alternateBounds"/>
                    </mxGeometry>
                </mxCell>
                <mxCell id="6021" value="" style="shape=partialRectangle;html=1;whiteSpace=wrap;connectable=0;strokeColor=inherit;overflow=hidden;fillColor=none;top=0;left=0;bottom=0;right=0;pointerEvents=1;" vertex="1" parent="6018">
                    <mxGeometry x="12" width="6" height="6" as="geometry">
                        <mxRectangle width="6" height="6" as="alternateBounds"/>
                    </mxGeometry>
                </mxCell>
                <mxCell id="6022" value="" style="shape=partialRectangle;html=1;whiteSpace=wrap;connectable=0;strokeColor=inherit;overflow=hidden;fillColor=none;top=0;left=0;bottom=0;right=0;pointerEvents=1;" vertex="1" parent="6018">
                    <mxGeometry x="18" width="6" height="6" as="geometry">
                        <mxRectangle width="6" height="6" as="alternateBounds"/>
                    </mxGeometry>
                </mxCell>
                <mxCell id="6023" value="" style="shape=partialRectangle;html=1;whiteSpace=wrap;connectable=0;strokeColor=inherit;overflow=hidden;fillColor=none;top=0;left=0;bottom=0;right=0;pointerEvents=1;" vertex="1" parent="6018">
                    <mxGeometry x="24" width="6" height="6" as="geometry">
                        <mxRectangle width="6" height="6" as="alternateBounds"/>
                    </mxGeometry>
                </mxCell>
                <mxCell id="6024" value="" style="shape=partialRectangle;html=1;whiteSpace=wrap;connectable=0;strokeColor=inherit;overflow=hidden;fillColor=none;top=0;left=0;bottom=0;right=0;pointerEvents=1;" vertex="1" parent="6018">
                    <mxGeometry x="30" width="6" height="6" as="geometry">
                        <mxRectangle width="6" height="6" as="alternateBounds"/>
                    </mxGeometry>
                </mxCell>
                <mxCell id="6025" value="" style="shape=partialRectangle;html=1;whiteSpace=wrap;connectable=0;strokeColor=inherit;overflow=hidden;fillColor=none;top=0;left=0;bottom=0;right=0;pointerEvents=1;" vertex="1" parent="6018">
                    <mxGeometry x="36" width="6" height="6" as="geometry">
                        <mxRectangle width="6" height="6" as="alternateBounds"/>
                    </mxGeometry>
                </mxCell>
                <mxCell id="6026" value="" style="shape=partialRectangle;html=1;whiteSpace=wrap;connectable=0;strokeColor=inherit;overflow=hidden;fillColor=none;top=0;left=0;bottom=0;right=0;pointerEvents=1;" vertex="1" parent="6018">
                    <mxGeometry x="42" width="6" height="6" as="geometry">
                        <mxRectangle width="6" height="6" as="alternateBounds"/>
                    </mxGeometry>
                </mxCell>
                <mxCell id="6027" value="" style="shape=partialRectangle;html=1;whiteSpace=wrap;connectable=0;strokeColor=inherit;overflow=hidden;fillColor=none;top=0;left=0;bottom=0;right=0;pointerEvents=1;" vertex="1" parent="6018">
                    <mxGeometry x="48" width="6" height="6" as="geometry">
                        <mxRectangle width="6" height="6" as="alternateBounds"/>
                    </mxGeometry>
                </mxCell>
                <mxCell id="6028" value="" style="shape=partialRectangle;html=1;whiteSpace=wrap;connectable=0;strokeColor=inherit;overflow=hidden;fillColor=none;top=0;left=0;bottom=0;right=0;pointerEvents=1;" vertex="1" parent="6018">
                    <mxGeometry x="54" width="6" height="6" as="geometry">
                        <mxRectangle width="6" height="6" as="alternateBounds"/>
                    </mxGeometry>
                </mxCell>
                <mxCell id="6029" value="" style="shape=partialRectangle;html=1;whiteSpace=wrap;connectable=0;strokeColor=inherit;overflow=hidden;fillColor=none;top=0;left=0;bottom=0;right=0;pointerEvents=1;" vertex="1" parent="6018">
                    <mxGeometry x="60" width="6" height="6" as="geometry">
                        <mxRectangle width="6" height="6" as="alternateBounds"/>
                    </mxGeometry>
                </mxCell>
                <mxCell id="6030" value="" style="shape=partialRectangle;html=1;whiteSpace=wrap;connectable=0;strokeColor=inherit;overflow=hidden;fillColor=none;top=0;left=0;bottom=0;right=0;pointerEvents=1;" vertex="1" parent="6018">
                    <mxGeometry x="66" width="6" height="6" as="geometry">
                        <mxRectangle width="6" height="6" as="alternateBounds"/>
                    </mxGeometry>
                </mxCell>
                <mxCell id="6031" value="" style="shape=partialRectangle;html=1;whiteSpace=wrap;connectable=0;strokeColor=inherit;overflow=hidden;fillColor=none;top=0;left=0;bottom=0;right=0;pointerEvents=1;" vertex="1" parent="6018">
                    <mxGeometry x="72" width="6" height="6" as="geometry">
                        <mxRectangle width="6" height="6" as="alternateBounds"/>
                    </mxGeometry>
                </mxCell>
                <mxCell id="6032" value="" style="shape=partialRectangle;html=1;whiteSpace=wrap;connectable=0;strokeColor=inherit;overflow=hidden;fillColor=none;top=0;left=0;bottom=0;right=0;pointerEvents=1;" vertex="1" parent="6018">
                    <mxGeometry x="78" width="6" height="6" as="geometry">
                        <mxRectangle width="6" height="6" as="alternateBounds"/>
                    </mxGeometry>
                </mxCell>
                <mxCell id="6033" value="" style="shape=partialRectangle;html=1;whiteSpace=wrap;connectable=0;strokeColor=inherit;overflow=hidden;fillColor=none;top=0;left=0;bottom=0;right=0;pointerEvents=1;" vertex="1" parent="6018">
                    <mxGeometry x="84" width="6" height="6" as="geometry">
                        <mxRectangle width="6" height="6" as="alternateBounds"/>
                    </mxGeometry>
                </mxCell>
                <mxCell id="6034" value="" style="shape=partialRectangle;html=1;whiteSpace=wrap;connectable=0;strokeColor=inherit;overflow=hidden;fillColor=none;top=0;left=0;bottom=0;right=0;pointerEvents=1;" vertex="1" parent="6018">
                    <mxGeometry x="90" width="6" height="6" as="geometry">
                        <mxRectangle width="6" height="6" as="alternateBounds"/>
                    </mxGeometry>
                </mxCell>
                <mxCell id="6035" value="" style="shape=partialRectangle;html=1;whiteSpace=wrap;connectable=0;strokeColor=inherit;overflow=hidden;fillColor=none;top=0;left=0;bottom=0;right=0;pointerEvents=1;" vertex="1" parent="6018">
                    <mxGeometry x="96" width="6" height="6" as="geometry">
                        <mxRectangle width="6" height="6" as="alternateBounds"/>
                    </mxGeometry>
                </mxCell>
                <mxCell id="6036" value="" style="shape=partialRectangle;html=1;whiteSpace=wrap;connectable=0;strokeColor=inherit;overflow=hidden;fillColor=none;top=0;left=0;bottom=0;right=0;pointerEvents=1;" vertex="1" parent="6018">
                    <mxGeometry x="102" width="6" height="6" as="geometry">
                        <mxRectangle width="6" height="6" as="alternateBounds"/>
                    </mxGeometry>
                </mxCell>
                <mxCell id="6037" value="" style="shape=partialRectangle;html=1;whiteSpace=wrap;connectable=0;strokeColor=inherit;overflow=hidden;fillColor=none;top=0;left=0;bottom=0;right=0;pointerEvents=1;" vertex="1" parent="6018">
                    <mxGeometry x="108" width="6" height="6" as="geometry">
                        <mxRectangle width="6" height="6" as="alternateBounds"/>
                    </mxGeometry>
                </mxCell>
                <mxCell id="6038" value="" style="shape=partialRectangle;html=1;whiteSpace=wrap;connectable=0;strokeColor=inherit;overflow=hidden;fillColor=none;top=0;left=0;bottom=0;right=0;pointerEvents=1;" vertex="1" parent="6018">
                    <mxGeometry x="114" width="6" height="6" as="geometry">
                        <mxRectangle width="6" height="6" as="alternateBounds"/>
                    </mxGeometry>
                </mxCell>
                <mxCell id="6039" value="" style="shape=tableRow;horizontal=0;startSize=0;swimlaneHead=0;swimlaneBody=0;strokeColor=inherit;top=0;left=0;bottom=0;right=0;collapsible=0;dropTarget=0;fillColor=none;points=[[0,0.5],[1,0.5]];portConstraint=eastwest;" vertex="1" parent="5954">
                    <mxGeometry y="25" width="120" height="6" as="geometry"/>
                </mxCell>
                <mxCell id="6040" value="" style="shape=partialRectangle;html=1;whiteSpace=wrap;connectable=0;strokeColor=inherit;overflow=hidden;fillColor=none;top=0;left=0;bottom=0;right=0;pointerEvents=1;" vertex="1" parent="6039">
                    <mxGeometry width="6" height="6" as="geometry">
                        <mxRectangle width="6" height="6" as="alternateBounds"/>
                    </mxGeometry>
                </mxCell>
                <mxCell id="6041" value="" style="shape=partialRectangle;html=1;whiteSpace=wrap;connectable=0;strokeColor=inherit;overflow=hidden;fillColor=none;top=0;left=0;bottom=0;right=0;pointerEvents=1;" vertex="1" parent="6039">
                    <mxGeometry x="6" width="6" height="6" as="geometry">
                        <mxRectangle width="6" height="6" as="alternateBounds"/>
                    </mxGeometry>
                </mxCell>
                <mxCell id="6042" value="" style="shape=partialRectangle;html=1;whiteSpace=wrap;connectable=0;strokeColor=inherit;overflow=hidden;fillColor=none;top=0;left=0;bottom=0;right=0;pointerEvents=1;" vertex="1" parent="6039">
                    <mxGeometry x="12" width="6" height="6" as="geometry">
                        <mxRectangle width="6" height="6" as="alternateBounds"/>
                    </mxGeometry>
                </mxCell>
                <mxCell id="6043" value="" style="shape=partialRectangle;html=1;whiteSpace=wrap;connectable=0;strokeColor=inherit;overflow=hidden;fillColor=none;top=0;left=0;bottom=0;right=0;pointerEvents=1;" vertex="1" parent="6039">
                    <mxGeometry x="18" width="6" height="6" as="geometry">
                        <mxRectangle width="6" height="6" as="alternateBounds"/>
                    </mxGeometry>
                </mxCell>
                <mxCell id="6044" value="" style="shape=partialRectangle;html=1;whiteSpace=wrap;connectable=0;strokeColor=inherit;overflow=hidden;fillColor=none;top=0;left=0;bottom=0;right=0;pointerEvents=1;" vertex="1" parent="6039">
                    <mxGeometry x="24" width="6" height="6" as="geometry">
                        <mxRectangle width="6" height="6" as="alternateBounds"/>
                    </mxGeometry>
                </mxCell>
                <mxCell id="6045" value="" style="shape=partialRectangle;html=1;whiteSpace=wrap;connectable=0;strokeColor=inherit;overflow=hidden;fillColor=none;top=0;left=0;bottom=0;right=0;pointerEvents=1;" vertex="1" parent="6039">
                    <mxGeometry x="30" width="6" height="6" as="geometry">
                        <mxRectangle width="6" height="6" as="alternateBounds"/>
                    </mxGeometry>
                </mxCell>
                <mxCell id="6046" value="" style="shape=partialRectangle;html=1;whiteSpace=wrap;connectable=0;strokeColor=inherit;overflow=hidden;fillColor=none;top=0;left=0;bottom=0;right=0;pointerEvents=1;" vertex="1" parent="6039">
                    <mxGeometry x="36" width="6" height="6" as="geometry">
                        <mxRectangle width="6" height="6" as="alternateBounds"/>
                    </mxGeometry>
                </mxCell>
                <mxCell id="6047" value="" style="shape=partialRectangle;html=1;whiteSpace=wrap;connectable=0;strokeColor=inherit;overflow=hidden;fillColor=none;top=0;left=0;bottom=0;right=0;pointerEvents=1;" vertex="1" parent="6039">
                    <mxGeometry x="42" width="6" height="6" as="geometry">
                        <mxRectangle width="6" height="6" as="alternateBounds"/>
                    </mxGeometry>
                </mxCell>
                <mxCell id="6048" value="" style="shape=partialRectangle;html=1;whiteSpace=wrap;connectable=0;strokeColor=inherit;overflow=hidden;fillColor=none;top=0;left=0;bottom=0;right=0;pointerEvents=1;" vertex="1" parent="6039">
                    <mxGeometry x="48" width="6" height="6" as="geometry">
                        <mxRectangle width="6" height="6" as="alternateBounds"/>
                    </mxGeometry>
                </mxCell>
                <mxCell id="6049" value="" style="shape=partialRectangle;html=1;whiteSpace=wrap;connectable=0;strokeColor=inherit;overflow=hidden;fillColor=none;top=0;left=0;bottom=0;right=0;pointerEvents=1;" vertex="1" parent="6039">
                    <mxGeometry x="54" width="6" height="6" as="geometry">
                        <mxRectangle width="6" height="6" as="alternateBounds"/>
                    </mxGeometry>
                </mxCell>
                <mxCell id="6050" value="" style="shape=partialRectangle;html=1;whiteSpace=wrap;connectable=0;strokeColor=inherit;overflow=hidden;fillColor=none;top=0;left=0;bottom=0;right=0;pointerEvents=1;" vertex="1" parent="6039">
                    <mxGeometry x="60" width="6" height="6" as="geometry">
                        <mxRectangle width="6" height="6" as="alternateBounds"/>
                    </mxGeometry>
                </mxCell>
                <mxCell id="6051" value="" style="shape=partialRectangle;html=1;whiteSpace=wrap;connectable=0;strokeColor=inherit;overflow=hidden;fillColor=none;top=0;left=0;bottom=0;right=0;pointerEvents=1;" vertex="1" parent="6039">
                    <mxGeometry x="66" width="6" height="6" as="geometry">
                        <mxRectangle width="6" height="6" as="alternateBounds"/>
                    </mxGeometry>
                </mxCell>
                <mxCell id="6052" value="" style="shape=partialRectangle;html=1;whiteSpace=wrap;connectable=0;strokeColor=inherit;overflow=hidden;fillColor=none;top=0;left=0;bottom=0;right=0;pointerEvents=1;" vertex="1" parent="6039">
                    <mxGeometry x="72" width="6" height="6" as="geometry">
                        <mxRectangle width="6" height="6" as="alternateBounds"/>
                    </mxGeometry>
                </mxCell>
                <mxCell id="6053" value="" style="shape=partialRectangle;html=1;whiteSpace=wrap;connectable=0;strokeColor=inherit;overflow=hidden;fillColor=none;top=0;left=0;bottom=0;right=0;pointerEvents=1;" vertex="1" parent="6039">
                    <mxGeometry x="78" width="6" height="6" as="geometry">
                        <mxRectangle width="6" height="6" as="alternateBounds"/>
                    </mxGeometry>
                </mxCell>
                <mxCell id="6054" value="" style="shape=partialRectangle;html=1;whiteSpace=wrap;connectable=0;strokeColor=inherit;overflow=hidden;fillColor=none;top=0;left=0;bottom=0;right=0;pointerEvents=1;" vertex="1" parent="6039">
                    <mxGeometry x="84" width="6" height="6" as="geometry">
                        <mxRectangle width="6" height="6" as="alternateBounds"/>
                    </mxGeometry>
                </mxCell>
                <mxCell id="6055" value="" style="shape=partialRectangle;html=1;whiteSpace=wrap;connectable=0;strokeColor=inherit;overflow=hidden;fillColor=none;top=0;left=0;bottom=0;right=0;pointerEvents=1;" vertex="1" parent="6039">
                    <mxGeometry x="90" width="6" height="6" as="geometry">
                        <mxRectangle width="6" height="6" as="alternateBounds"/>
                    </mxGeometry>
                </mxCell>
                <mxCell id="6056" value="" style="shape=partialRectangle;html=1;whiteSpace=wrap;connectable=0;strokeColor=inherit;overflow=hidden;fillColor=none;top=0;left=0;bottom=0;right=0;pointerEvents=1;" vertex="1" parent="6039">
                    <mxGeometry x="96" width="6" height="6" as="geometry">
                        <mxRectangle width="6" height="6" as="alternateBounds"/>
                    </mxGeometry>
                </mxCell>
                <mxCell id="6057" value="" style="shape=partialRectangle;html=1;whiteSpace=wrap;connectable=0;strokeColor=inherit;overflow=hidden;fillColor=none;top=0;left=0;bottom=0;right=0;pointerEvents=1;" vertex="1" parent="6039">
                    <mxGeometry x="102" width="6" height="6" as="geometry">
                        <mxRectangle width="6" height="6" as="alternateBounds"/>
                    </mxGeometry>
                </mxCell>
                <mxCell id="6058" value="" style="shape=partialRectangle;html=1;whiteSpace=wrap;connectable=0;strokeColor=inherit;overflow=hidden;fillColor=none;top=0;left=0;bottom=0;right=0;pointerEvents=1;" vertex="1" parent="6039">
                    <mxGeometry x="108" width="6" height="6" as="geometry">
                        <mxRectangle width="6" height="6" as="alternateBounds"/>
                    </mxGeometry>
                </mxCell>
                <mxCell id="6059" value="" style="shape=partialRectangle;html=1;whiteSpace=wrap;connectable=0;strokeColor=inherit;overflow=hidden;fillColor=none;top=0;left=0;bottom=0;right=0;pointerEvents=1;" vertex="1" parent="6039">
                    <mxGeometry x="114" width="6" height="6" as="geometry">
                        <mxRectangle width="6" height="6" as="alternateBounds"/>
                    </mxGeometry>
                </mxCell>
                <mxCell id="6060" value="" style="shape=tableRow;horizontal=0;startSize=0;swimlaneHead=0;swimlaneBody=0;strokeColor=inherit;top=0;left=0;bottom=0;right=0;collapsible=0;dropTarget=0;fillColor=none;points=[[0,0.5],[1,0.5]];portConstraint=eastwest;" vertex="1" parent="5954">
                    <mxGeometry y="31" width="120" height="7" as="geometry"/>
                </mxCell>
                <mxCell id="6061" value="" style="shape=partialRectangle;html=1;whiteSpace=wrap;connectable=0;strokeColor=inherit;overflow=hidden;fillColor=none;top=0;left=0;bottom=0;right=0;pointerEvents=1;" vertex="1" parent="6060">
                    <mxGeometry width="6" height="7" as="geometry">
                        <mxRectangle width="6" height="7" as="alternateBounds"/>
                    </mxGeometry>
                </mxCell>
                <mxCell id="6062" value="" style="shape=partialRectangle;html=1;whiteSpace=wrap;connectable=0;strokeColor=inherit;overflow=hidden;fillColor=none;top=0;left=0;bottom=0;right=0;pointerEvents=1;" vertex="1" parent="6060">
                    <mxGeometry x="6" width="6" height="7" as="geometry">
                        <mxRectangle width="6" height="7" as="alternateBounds"/>
                    </mxGeometry>
                </mxCell>
                <mxCell id="6063" value="" style="shape=partialRectangle;html=1;whiteSpace=wrap;connectable=0;strokeColor=inherit;overflow=hidden;fillColor=none;top=0;left=0;bottom=0;right=0;pointerEvents=1;" vertex="1" parent="6060">
                    <mxGeometry x="12" width="6" height="7" as="geometry">
                        <mxRectangle width="6" height="7" as="alternateBounds"/>
                    </mxGeometry>
                </mxCell>
                <mxCell id="6064" value="" style="shape=partialRectangle;html=1;whiteSpace=wrap;connectable=0;strokeColor=inherit;overflow=hidden;fillColor=none;top=0;left=0;bottom=0;right=0;pointerEvents=1;" vertex="1" parent="6060">
                    <mxGeometry x="18" width="6" height="7" as="geometry">
                        <mxRectangle width="6" height="7" as="alternateBounds"/>
                    </mxGeometry>
                </mxCell>
                <mxCell id="6065" value="" style="shape=partialRectangle;html=1;whiteSpace=wrap;connectable=0;strokeColor=inherit;overflow=hidden;fillColor=none;top=0;left=0;bottom=0;right=0;pointerEvents=1;" vertex="1" parent="6060">
                    <mxGeometry x="24" width="6" height="7" as="geometry">
                        <mxRectangle width="6" height="7" as="alternateBounds"/>
                    </mxGeometry>
                </mxCell>
                <mxCell id="6066" value="" style="shape=partialRectangle;html=1;whiteSpace=wrap;connectable=0;strokeColor=inherit;overflow=hidden;fillColor=none;top=0;left=0;bottom=0;right=0;pointerEvents=1;" vertex="1" parent="6060">
                    <mxGeometry x="30" width="6" height="7" as="geometry">
                        <mxRectangle width="6" height="7" as="alternateBounds"/>
                    </mxGeometry>
                </mxCell>
                <mxCell id="6067" value="" style="shape=partialRectangle;html=1;whiteSpace=wrap;connectable=0;strokeColor=inherit;overflow=hidden;fillColor=none;top=0;left=0;bottom=0;right=0;pointerEvents=1;" vertex="1" parent="6060">
                    <mxGeometry x="36" width="6" height="7" as="geometry">
                        <mxRectangle width="6" height="7" as="alternateBounds"/>
                    </mxGeometry>
                </mxCell>
                <mxCell id="6068" value="" style="shape=partialRectangle;html=1;whiteSpace=wrap;connectable=0;strokeColor=inherit;overflow=hidden;fillColor=none;top=0;left=0;bottom=0;right=0;pointerEvents=1;" vertex="1" parent="6060">
                    <mxGeometry x="42" width="6" height="7" as="geometry">
                        <mxRectangle width="6" height="7" as="alternateBounds"/>
                    </mxGeometry>
                </mxCell>
                <mxCell id="6069" value="" style="shape=partialRectangle;html=1;whiteSpace=wrap;connectable=0;strokeColor=inherit;overflow=hidden;fillColor=none;top=0;left=0;bottom=0;right=0;pointerEvents=1;" vertex="1" parent="6060">
                    <mxGeometry x="48" width="6" height="7" as="geometry">
                        <mxRectangle width="6" height="7" as="alternateBounds"/>
                    </mxGeometry>
                </mxCell>
                <mxCell id="6070" value="" style="shape=partialRectangle;html=1;whiteSpace=wrap;connectable=0;strokeColor=inherit;overflow=hidden;fillColor=none;top=0;left=0;bottom=0;right=0;pointerEvents=1;" vertex="1" parent="6060">
                    <mxGeometry x="54" width="6" height="7" as="geometry">
                        <mxRectangle width="6" height="7" as="alternateBounds"/>
                    </mxGeometry>
                </mxCell>
                <mxCell id="6071" value="" style="shape=partialRectangle;html=1;whiteSpace=wrap;connectable=0;strokeColor=inherit;overflow=hidden;fillColor=none;top=0;left=0;bottom=0;right=0;pointerEvents=1;" vertex="1" parent="6060">
                    <mxGeometry x="60" width="6" height="7" as="geometry">
                        <mxRectangle width="6" height="7" as="alternateBounds"/>
                    </mxGeometry>
                </mxCell>
                <mxCell id="6072" value="" style="shape=partialRectangle;html=1;whiteSpace=wrap;connectable=0;strokeColor=inherit;overflow=hidden;fillColor=none;top=0;left=0;bottom=0;right=0;pointerEvents=1;" vertex="1" parent="6060">
                    <mxGeometry x="66" width="6" height="7" as="geometry">
                        <mxRectangle width="6" height="7" as="alternateBounds"/>
                    </mxGeometry>
                </mxCell>
                <mxCell id="6073" value="" style="shape=partialRectangle;html=1;whiteSpace=wrap;connectable=0;strokeColor=inherit;overflow=hidden;fillColor=none;top=0;left=0;bottom=0;right=0;pointerEvents=1;" vertex="1" parent="6060">
                    <mxGeometry x="72" width="6" height="7" as="geometry">
                        <mxRectangle width="6" height="7" as="alternateBounds"/>
                    </mxGeometry>
                </mxCell>
                <mxCell id="6074" value="" style="shape=partialRectangle;html=1;whiteSpace=wrap;connectable=0;strokeColor=inherit;overflow=hidden;fillColor=none;top=0;left=0;bottom=0;right=0;pointerEvents=1;" vertex="1" parent="6060">
                    <mxGeometry x="78" width="6" height="7" as="geometry">
                        <mxRectangle width="6" height="7" as="alternateBounds"/>
                    </mxGeometry>
                </mxCell>
                <mxCell id="6075" value="" style="shape=partialRectangle;html=1;whiteSpace=wrap;connectable=0;strokeColor=inherit;overflow=hidden;fillColor=none;top=0;left=0;bottom=0;right=0;pointerEvents=1;" vertex="1" parent="6060">
                    <mxGeometry x="84" width="6" height="7" as="geometry">
                        <mxRectangle width="6" height="7" as="alternateBounds"/>
                    </mxGeometry>
                </mxCell>
                <mxCell id="6076" value="" style="shape=partialRectangle;html=1;whiteSpace=wrap;connectable=0;strokeColor=inherit;overflow=hidden;fillColor=none;top=0;left=0;bottom=0;right=0;pointerEvents=1;" vertex="1" parent="6060">
                    <mxGeometry x="90" width="6" height="7" as="geometry">
                        <mxRectangle width="6" height="7" as="alternateBounds"/>
                    </mxGeometry>
                </mxCell>
                <mxCell id="6077" value="" style="shape=partialRectangle;html=1;whiteSpace=wrap;connectable=0;strokeColor=inherit;overflow=hidden;fillColor=none;top=0;left=0;bottom=0;right=0;pointerEvents=1;" vertex="1" parent="6060">
                    <mxGeometry x="96" width="6" height="7" as="geometry">
                        <mxRectangle width="6" height="7" as="alternateBounds"/>
                    </mxGeometry>
                </mxCell>
                <mxCell id="6078" value="" style="shape=partialRectangle;html=1;whiteSpace=wrap;connectable=0;strokeColor=inherit;overflow=hidden;fillColor=none;top=0;left=0;bottom=0;right=0;pointerEvents=1;" vertex="1" parent="6060">
                    <mxGeometry x="102" width="6" height="7" as="geometry">
                        <mxRectangle width="6" height="7" as="alternateBounds"/>
                    </mxGeometry>
                </mxCell>
                <mxCell id="6079" value="" style="shape=partialRectangle;html=1;whiteSpace=wrap;connectable=0;strokeColor=inherit;overflow=hidden;fillColor=none;top=0;left=0;bottom=0;right=0;pointerEvents=1;" vertex="1" parent="6060">
                    <mxGeometry x="108" width="6" height="7" as="geometry">
                        <mxRectangle width="6" height="7" as="alternateBounds"/>
                    </mxGeometry>
                </mxCell>
                <mxCell id="6080" value="" style="shape=partialRectangle;html=1;whiteSpace=wrap;connectable=0;strokeColor=inherit;overflow=hidden;fillColor=none;top=0;left=0;bottom=0;right=0;pointerEvents=1;" vertex="1" parent="6060">
                    <mxGeometry x="114" width="6" height="7" as="geometry">
                        <mxRectangle width="6" height="7" as="alternateBounds"/>
                    </mxGeometry>
                </mxCell>
                <mxCell id="6081" value="" style="shape=tableRow;horizontal=0;startSize=0;swimlaneHead=0;swimlaneBody=0;strokeColor=inherit;top=0;left=0;bottom=0;right=0;collapsible=0;dropTarget=0;fillColor=none;points=[[0,0.5],[1,0.5]];portConstraint=eastwest;" vertex="1" parent="5954">
                    <mxGeometry y="38" width="120" height="6" as="geometry"/>
                </mxCell>
                <mxCell id="6082" value="" style="shape=partialRectangle;html=1;whiteSpace=wrap;connectable=0;strokeColor=inherit;overflow=hidden;fillColor=none;top=0;left=0;bottom=0;right=0;pointerEvents=1;" vertex="1" parent="6081">
                    <mxGeometry width="6" height="6" as="geometry">
                        <mxRectangle width="6" height="6" as="alternateBounds"/>
                    </mxGeometry>
                </mxCell>
                <mxCell id="6083" value="" style="shape=partialRectangle;html=1;whiteSpace=wrap;connectable=0;strokeColor=inherit;overflow=hidden;fillColor=none;top=0;left=0;bottom=0;right=0;pointerEvents=1;" vertex="1" parent="6081">
                    <mxGeometry x="6" width="6" height="6" as="geometry">
                        <mxRectangle width="6" height="6" as="alternateBounds"/>
                    </mxGeometry>
                </mxCell>
                <mxCell id="6084" value="" style="shape=partialRectangle;html=1;whiteSpace=wrap;connectable=0;strokeColor=inherit;overflow=hidden;fillColor=none;top=0;left=0;bottom=0;right=0;pointerEvents=1;" vertex="1" parent="6081">
                    <mxGeometry x="12" width="6" height="6" as="geometry">
                        <mxRectangle width="6" height="6" as="alternateBounds"/>
                    </mxGeometry>
                </mxCell>
                <mxCell id="6085" value="" style="shape=partialRectangle;html=1;whiteSpace=wrap;connectable=0;strokeColor=inherit;overflow=hidden;fillColor=none;top=0;left=0;bottom=0;right=0;pointerEvents=1;" vertex="1" parent="6081">
                    <mxGeometry x="18" width="6" height="6" as="geometry">
                        <mxRectangle width="6" height="6" as="alternateBounds"/>
                    </mxGeometry>
                </mxCell>
                <mxCell id="6086" value="" style="shape=partialRectangle;html=1;whiteSpace=wrap;connectable=0;strokeColor=inherit;overflow=hidden;fillColor=none;top=0;left=0;bottom=0;right=0;pointerEvents=1;" vertex="1" parent="6081">
                    <mxGeometry x="24" width="6" height="6" as="geometry">
                        <mxRectangle width="6" height="6" as="alternateBounds"/>
                    </mxGeometry>
                </mxCell>
                <mxCell id="6087" value="" style="shape=partialRectangle;html=1;whiteSpace=wrap;connectable=0;strokeColor=inherit;overflow=hidden;fillColor=none;top=0;left=0;bottom=0;right=0;pointerEvents=1;" vertex="1" parent="6081">
                    <mxGeometry x="30" width="6" height="6" as="geometry">
                        <mxRectangle width="6" height="6" as="alternateBounds"/>
                    </mxGeometry>
                </mxCell>
                <mxCell id="6088" value="" style="shape=partialRectangle;html=1;whiteSpace=wrap;connectable=0;strokeColor=inherit;overflow=hidden;fillColor=none;top=0;left=0;bottom=0;right=0;pointerEvents=1;" vertex="1" parent="6081">
                    <mxGeometry x="36" width="6" height="6" as="geometry">
                        <mxRectangle width="6" height="6" as="alternateBounds"/>
                    </mxGeometry>
                </mxCell>
                <mxCell id="6089" value="" style="shape=partialRectangle;html=1;whiteSpace=wrap;connectable=0;strokeColor=inherit;overflow=hidden;fillColor=none;top=0;left=0;bottom=0;right=0;pointerEvents=1;" vertex="1" parent="6081">
                    <mxGeometry x="42" width="6" height="6" as="geometry">
                        <mxRectangle width="6" height="6" as="alternateBounds"/>
                    </mxGeometry>
                </mxCell>
                <mxCell id="6090" value="" style="shape=partialRectangle;html=1;whiteSpace=wrap;connectable=0;strokeColor=inherit;overflow=hidden;fillColor=none;top=0;left=0;bottom=0;right=0;pointerEvents=1;" vertex="1" parent="6081">
                    <mxGeometry x="48" width="6" height="6" as="geometry">
                        <mxRectangle width="6" height="6" as="alternateBounds"/>
                    </mxGeometry>
                </mxCell>
                <mxCell id="6091" value="" style="shape=partialRectangle;html=1;whiteSpace=wrap;connectable=0;strokeColor=inherit;overflow=hidden;fillColor=none;top=0;left=0;bottom=0;right=0;pointerEvents=1;" vertex="1" parent="6081">
                    <mxGeometry x="54" width="6" height="6" as="geometry">
                        <mxRectangle width="6" height="6" as="alternateBounds"/>
                    </mxGeometry>
                </mxCell>
                <mxCell id="6092" value="" style="shape=partialRectangle;html=1;whiteSpace=wrap;connectable=0;strokeColor=inherit;overflow=hidden;fillColor=none;top=0;left=0;bottom=0;right=0;pointerEvents=1;" vertex="1" parent="6081">
                    <mxGeometry x="60" width="6" height="6" as="geometry">
                        <mxRectangle width="6" height="6" as="alternateBounds"/>
                    </mxGeometry>
                </mxCell>
                <mxCell id="6093" value="" style="shape=partialRectangle;html=1;whiteSpace=wrap;connectable=0;strokeColor=inherit;overflow=hidden;fillColor=none;top=0;left=0;bottom=0;right=0;pointerEvents=1;" vertex="1" parent="6081">
                    <mxGeometry x="66" width="6" height="6" as="geometry">
                        <mxRectangle width="6" height="6" as="alternateBounds"/>
                    </mxGeometry>
                </mxCell>
                <mxCell id="6094" value="" style="shape=partialRectangle;html=1;whiteSpace=wrap;connectable=0;strokeColor=inherit;overflow=hidden;fillColor=none;top=0;left=0;bottom=0;right=0;pointerEvents=1;" vertex="1" parent="6081">
                    <mxGeometry x="72" width="6" height="6" as="geometry">
                        <mxRectangle width="6" height="6" as="alternateBounds"/>
                    </mxGeometry>
                </mxCell>
                <mxCell id="6095" value="" style="shape=partialRectangle;html=1;whiteSpace=wrap;connectable=0;strokeColor=inherit;overflow=hidden;fillColor=none;top=0;left=0;bottom=0;right=0;pointerEvents=1;" vertex="1" parent="6081">
                    <mxGeometry x="78" width="6" height="6" as="geometry">
                        <mxRectangle width="6" height="6" as="alternateBounds"/>
                    </mxGeometry>
                </mxCell>
                <mxCell id="6096" value="" style="shape=partialRectangle;html=1;whiteSpace=wrap;connectable=0;strokeColor=inherit;overflow=hidden;fillColor=none;top=0;left=0;bottom=0;right=0;pointerEvents=1;" vertex="1" parent="6081">
                    <mxGeometry x="84" width="6" height="6" as="geometry">
                        <mxRectangle width="6" height="6" as="alternateBounds"/>
                    </mxGeometry>
                </mxCell>
                <mxCell id="6097" value="" style="shape=partialRectangle;html=1;whiteSpace=wrap;connectable=0;strokeColor=inherit;overflow=hidden;fillColor=none;top=0;left=0;bottom=0;right=0;pointerEvents=1;" vertex="1" parent="6081">
                    <mxGeometry x="90" width="6" height="6" as="geometry">
                        <mxRectangle width="6" height="6" as="alternateBounds"/>
                    </mxGeometry>
                </mxCell>
                <mxCell id="6098" value="" style="shape=partialRectangle;html=1;whiteSpace=wrap;connectable=0;strokeColor=inherit;overflow=hidden;fillColor=none;top=0;left=0;bottom=0;right=0;pointerEvents=1;" vertex="1" parent="6081">
                    <mxGeometry x="96" width="6" height="6" as="geometry">
                        <mxRectangle width="6" height="6" as="alternateBounds"/>
                    </mxGeometry>
                </mxCell>
                <mxCell id="6099" value="" style="shape=partialRectangle;html=1;whiteSpace=wrap;connectable=0;strokeColor=inherit;overflow=hidden;fillColor=none;top=0;left=0;bottom=0;right=0;pointerEvents=1;" vertex="1" parent="6081">
                    <mxGeometry x="102" width="6" height="6" as="geometry">
                        <mxRectangle width="6" height="6" as="alternateBounds"/>
                    </mxGeometry>
                </mxCell>
                <mxCell id="6100" value="" style="shape=partialRectangle;html=1;whiteSpace=wrap;connectable=0;strokeColor=inherit;overflow=hidden;fillColor=none;top=0;left=0;bottom=0;right=0;pointerEvents=1;" vertex="1" parent="6081">
                    <mxGeometry x="108" width="6" height="6" as="geometry">
                        <mxRectangle width="6" height="6" as="alternateBounds"/>
                    </mxGeometry>
                </mxCell>
                <mxCell id="6101" value="" style="shape=partialRectangle;html=1;whiteSpace=wrap;connectable=0;strokeColor=inherit;overflow=hidden;fillColor=none;top=0;left=0;bottom=0;right=0;pointerEvents=1;" vertex="1" parent="6081">
                    <mxGeometry x="114" width="6" height="6" as="geometry">
                        <mxRectangle width="6" height="6" as="alternateBounds"/>
                    </mxGeometry>
                </mxCell>
                <mxCell id="6102" value="" style="shape=tableRow;horizontal=0;startSize=0;swimlaneHead=0;swimlaneBody=0;strokeColor=inherit;top=0;left=0;bottom=0;right=0;collapsible=0;dropTarget=0;fillColor=none;points=[[0,0.5],[1,0.5]];portConstraint=eastwest;" vertex="1" parent="5954">
                    <mxGeometry y="44" width="120" height="6" as="geometry"/>
                </mxCell>
                <mxCell id="6103" value="" style="shape=partialRectangle;html=1;whiteSpace=wrap;connectable=0;strokeColor=inherit;overflow=hidden;fillColor=none;top=0;left=0;bottom=0;right=0;pointerEvents=1;" vertex="1" parent="6102">
                    <mxGeometry width="6" height="6" as="geometry">
                        <mxRectangle width="6" height="6" as="alternateBounds"/>
                    </mxGeometry>
                </mxCell>
                <mxCell id="6104" value="" style="shape=partialRectangle;html=1;whiteSpace=wrap;connectable=0;strokeColor=inherit;overflow=hidden;fillColor=none;top=0;left=0;bottom=0;right=0;pointerEvents=1;" vertex="1" parent="6102">
                    <mxGeometry x="6" width="6" height="6" as="geometry">
                        <mxRectangle width="6" height="6" as="alternateBounds"/>
                    </mxGeometry>
                </mxCell>
                <mxCell id="6105" value="" style="shape=partialRectangle;html=1;whiteSpace=wrap;connectable=0;strokeColor=inherit;overflow=hidden;fillColor=none;top=0;left=0;bottom=0;right=0;pointerEvents=1;" vertex="1" parent="6102">
                    <mxGeometry x="12" width="6" height="6" as="geometry">
                        <mxRectangle width="6" height="6" as="alternateBounds"/>
                    </mxGeometry>
                </mxCell>
                <mxCell id="6106" value="" style="shape=partialRectangle;html=1;whiteSpace=wrap;connectable=0;strokeColor=inherit;overflow=hidden;fillColor=none;top=0;left=0;bottom=0;right=0;pointerEvents=1;" vertex="1" parent="6102">
                    <mxGeometry x="18" width="6" height="6" as="geometry">
                        <mxRectangle width="6" height="6" as="alternateBounds"/>
                    </mxGeometry>
                </mxCell>
                <mxCell id="6107" value="" style="shape=partialRectangle;html=1;whiteSpace=wrap;connectable=0;strokeColor=inherit;overflow=hidden;fillColor=none;top=0;left=0;bottom=0;right=0;pointerEvents=1;" vertex="1" parent="6102">
                    <mxGeometry x="24" width="6" height="6" as="geometry">
                        <mxRectangle width="6" height="6" as="alternateBounds"/>
                    </mxGeometry>
                </mxCell>
                <mxCell id="6108" value="" style="shape=partialRectangle;html=1;whiteSpace=wrap;connectable=0;strokeColor=inherit;overflow=hidden;fillColor=none;top=0;left=0;bottom=0;right=0;pointerEvents=1;" vertex="1" parent="6102">
                    <mxGeometry x="30" width="6" height="6" as="geometry">
                        <mxRectangle width="6" height="6" as="alternateBounds"/>
                    </mxGeometry>
                </mxCell>
                <mxCell id="6109" value="" style="shape=partialRectangle;html=1;whiteSpace=wrap;connectable=0;strokeColor=inherit;overflow=hidden;fillColor=none;top=0;left=0;bottom=0;right=0;pointerEvents=1;" vertex="1" parent="6102">
                    <mxGeometry x="36" width="6" height="6" as="geometry">
                        <mxRectangle width="6" height="6" as="alternateBounds"/>
                    </mxGeometry>
                </mxCell>
                <mxCell id="6110" value="" style="shape=partialRectangle;html=1;whiteSpace=wrap;connectable=0;strokeColor=inherit;overflow=hidden;fillColor=none;top=0;left=0;bottom=0;right=0;pointerEvents=1;" vertex="1" parent="6102">
                    <mxGeometry x="42" width="6" height="6" as="geometry">
                        <mxRectangle width="6" height="6" as="alternateBounds"/>
                    </mxGeometry>
                </mxCell>
                <mxCell id="6111" value="" style="shape=partialRectangle;html=1;whiteSpace=wrap;connectable=0;strokeColor=inherit;overflow=hidden;fillColor=none;top=0;left=0;bottom=0;right=0;pointerEvents=1;" vertex="1" parent="6102">
                    <mxGeometry x="48" width="6" height="6" as="geometry">
                        <mxRectangle width="6" height="6" as="alternateBounds"/>
                    </mxGeometry>
                </mxCell>
                <mxCell id="6112" value="" style="shape=partialRectangle;html=1;whiteSpace=wrap;connectable=0;strokeColor=inherit;overflow=hidden;fillColor=none;top=0;left=0;bottom=0;right=0;pointerEvents=1;" vertex="1" parent="6102">
                    <mxGeometry x="54" width="6" height="6" as="geometry">
                        <mxRectangle width="6" height="6" as="alternateBounds"/>
                    </mxGeometry>
                </mxCell>
                <mxCell id="6113" value="" style="shape=partialRectangle;html=1;whiteSpace=wrap;connectable=0;strokeColor=inherit;overflow=hidden;fillColor=none;top=0;left=0;bottom=0;right=0;pointerEvents=1;" vertex="1" parent="6102">
                    <mxGeometry x="60" width="6" height="6" as="geometry">
                        <mxRectangle width="6" height="6" as="alternateBounds"/>
                    </mxGeometry>
                </mxCell>
                <mxCell id="6114" value="" style="shape=partialRectangle;html=1;whiteSpace=wrap;connectable=0;strokeColor=inherit;overflow=hidden;fillColor=none;top=0;left=0;bottom=0;right=0;pointerEvents=1;" vertex="1" parent="6102">
                    <mxGeometry x="66" width="6" height="6" as="geometry">
                        <mxRectangle width="6" height="6" as="alternateBounds"/>
                    </mxGeometry>
                </mxCell>
                <mxCell id="6115" value="" style="shape=partialRectangle;html=1;whiteSpace=wrap;connectable=0;strokeColor=inherit;overflow=hidden;fillColor=none;top=0;left=0;bottom=0;right=0;pointerEvents=1;" vertex="1" parent="6102">
                    <mxGeometry x="72" width="6" height="6" as="geometry">
                        <mxRectangle width="6" height="6" as="alternateBounds"/>
                    </mxGeometry>
                </mxCell>
                <mxCell id="6116" value="" style="shape=partialRectangle;html=1;whiteSpace=wrap;connectable=0;strokeColor=inherit;overflow=hidden;fillColor=none;top=0;left=0;bottom=0;right=0;pointerEvents=1;" vertex="1" parent="6102">
                    <mxGeometry x="78" width="6" height="6" as="geometry">
                        <mxRectangle width="6" height="6" as="alternateBounds"/>
                    </mxGeometry>
                </mxCell>
                <mxCell id="6117" value="" style="shape=partialRectangle;html=1;whiteSpace=wrap;connectable=0;strokeColor=inherit;overflow=hidden;fillColor=none;top=0;left=0;bottom=0;right=0;pointerEvents=1;" vertex="1" parent="6102">
                    <mxGeometry x="84" width="6" height="6" as="geometry">
                        <mxRectangle width="6" height="6" as="alternateBounds"/>
                    </mxGeometry>
                </mxCell>
                <mxCell id="6118" value="" style="shape=partialRectangle;html=1;whiteSpace=wrap;connectable=0;strokeColor=inherit;overflow=hidden;fillColor=none;top=0;left=0;bottom=0;right=0;pointerEvents=1;" vertex="1" parent="6102">
                    <mxGeometry x="90" width="6" height="6" as="geometry">
                        <mxRectangle width="6" height="6" as="alternateBounds"/>
                    </mxGeometry>
                </mxCell>
                <mxCell id="6119" value="" style="shape=partialRectangle;html=1;whiteSpace=wrap;connectable=0;strokeColor=inherit;overflow=hidden;fillColor=none;top=0;left=0;bottom=0;right=0;pointerEvents=1;" vertex="1" parent="6102">
                    <mxGeometry x="96" width="6" height="6" as="geometry">
                        <mxRectangle width="6" height="6" as="alternateBounds"/>
                    </mxGeometry>
                </mxCell>
                <mxCell id="6120" value="" style="shape=partialRectangle;html=1;whiteSpace=wrap;connectable=0;strokeColor=inherit;overflow=hidden;fillColor=none;top=0;left=0;bottom=0;right=0;pointerEvents=1;" vertex="1" parent="6102">
                    <mxGeometry x="102" width="6" height="6" as="geometry">
                        <mxRectangle width="6" height="6" as="alternateBounds"/>
                    </mxGeometry>
                </mxCell>
                <mxCell id="6121" value="" style="shape=partialRectangle;html=1;whiteSpace=wrap;connectable=0;strokeColor=inherit;overflow=hidden;fillColor=none;top=0;left=0;bottom=0;right=0;pointerEvents=1;" vertex="1" parent="6102">
                    <mxGeometry x="108" width="6" height="6" as="geometry">
                        <mxRectangle width="6" height="6" as="alternateBounds"/>
                    </mxGeometry>
                </mxCell>
                <mxCell id="6122" value="" style="shape=partialRectangle;html=1;whiteSpace=wrap;connectable=0;strokeColor=inherit;overflow=hidden;fillColor=none;top=0;left=0;bottom=0;right=0;pointerEvents=1;" vertex="1" parent="6102">
                    <mxGeometry x="114" width="6" height="6" as="geometry">
                        <mxRectangle width="6" height="6" as="alternateBounds"/>
                    </mxGeometry>
                </mxCell>
                <mxCell id="5934" value="&lt;font face=&quot;Helvetica&quot;&gt;GPU cores&lt;br&gt;&lt;/font&gt;" style="text;html=1;strokeColor=none;fillColor=none;align=center;verticalAlign=middle;whiteSpace=wrap;rounded=0;fontSize=17;fontColor=#FFFFFF;" vertex="1" parent="1">
                    <mxGeometry x="575" y="73" width="120" height="50" as="geometry"/>
                </mxCell>
                <mxCell id="5935" value="&lt;font face=&quot;Helvetica&quot;&gt;GPU&lt;br&gt;&lt;/font&gt;" style="text;html=1;strokeColor=none;fillColor=none;align=center;verticalAlign=middle;whiteSpace=wrap;rounded=0;fontSize=17;fontColor=#FFFFFF;" vertex="1" parent="1">
                    <mxGeometry x="560" y="47" width="140" height="27" as="geometry"/>
                </mxCell>
                <mxCell id="5936" value="" style="group" connectable="0" vertex="1" parent="1">
                    <mxGeometry x="410" y="39" width="140" height="132" as="geometry"/>
                </mxCell>
                <mxCell id="5937" style="edgeStyle=orthogonalEdgeStyle;rounded=0;orthogonalLoop=1;jettySize=auto;html=1;exitX=0.5;exitY=1;exitDx=0;exitDy=0;" edge="1" parent="5936">
                    <mxGeometry relative="1" as="geometry">
                        <mxPoint x="70" y="100" as="targetPoint"/>
                        <mxPoint x="70" y="100" as="sourcePoint"/>
                    </mxGeometry>
                </mxCell>
                <mxCell id="5938" value="" style="rounded=0;whiteSpace=wrap;html=1;strokeColor=none;fillColor=#9C2A44;" vertex="1" parent="5936">
                    <mxGeometry x="6" y="7" width="130" height="85" as="geometry"/>
                </mxCell>
                <mxCell id="5939" value="" style="shape=table;startSize=0;container=1;collapsible=0;childLayout=tableLayout;strokeColor=#9C2A44;fillColor=#C23555;" vertex="1" parent="5936">
                    <mxGeometry x="10" y="33" width="120" height="50" as="geometry"/>
                </mxCell>
                <mxCell id="5940" value="" style="shape=tableRow;horizontal=0;startSize=0;swimlaneHead=0;swimlaneBody=0;strokeColor=inherit;top=0;left=0;bottom=0;right=0;collapsible=0;dropTarget=0;fillColor=none;points=[[0,0.5],[1,0.5]];portConstraint=eastwest;" vertex="1" parent="5939">
                    <mxGeometry width="120" height="25" as="geometry"/>
                </mxCell>
                <mxCell id="5941" value="" style="shape=partialRectangle;html=1;whiteSpace=wrap;connectable=0;strokeColor=inherit;overflow=hidden;fillColor=none;top=0;left=0;bottom=0;right=0;pointerEvents=1;" vertex="1" parent="5940">
                    <mxGeometry width="30" height="25" as="geometry">
                        <mxRectangle width="30" height="25" as="alternateBounds"/>
                    </mxGeometry>
                </mxCell>
                <mxCell id="5942" value="" style="shape=partialRectangle;html=1;whiteSpace=wrap;connectable=0;strokeColor=inherit;overflow=hidden;fillColor=none;top=0;left=0;bottom=0;right=0;pointerEvents=1;" vertex="1" parent="5940">
                    <mxGeometry x="30" width="30" height="25" as="geometry">
                        <mxRectangle width="30" height="25" as="alternateBounds"/>
                    </mxGeometry>
                </mxCell>
                <mxCell id="5943" value="" style="shape=partialRectangle;html=1;whiteSpace=wrap;connectable=0;strokeColor=inherit;overflow=hidden;fillColor=none;top=0;left=0;bottom=0;right=0;pointerEvents=1;" vertex="1" parent="5940">
                    <mxGeometry x="60" width="30" height="25" as="geometry">
                        <mxRectangle width="30" height="25" as="alternateBounds"/>
                    </mxGeometry>
                </mxCell>
                <mxCell id="5944" value="" style="shape=partialRectangle;html=1;whiteSpace=wrap;connectable=0;strokeColor=inherit;overflow=hidden;fillColor=none;top=0;left=0;bottom=0;right=0;pointerEvents=1;" vertex="1" parent="5940">
                    <mxGeometry x="90" width="30" height="25" as="geometry">
                        <mxRectangle width="30" height="25" as="alternateBounds"/>
                    </mxGeometry>
                </mxCell>
                <mxCell id="5945" value="" style="shape=tableRow;horizontal=0;startSize=0;swimlaneHead=0;swimlaneBody=0;strokeColor=inherit;top=0;left=0;bottom=0;right=0;collapsible=0;dropTarget=0;fillColor=none;points=[[0,0.5],[1,0.5]];portConstraint=eastwest;" vertex="1" parent="5939">
                    <mxGeometry y="25" width="120" height="25" as="geometry"/>
                </mxCell>
                <mxCell id="5946" value="" style="shape=partialRectangle;html=1;whiteSpace=wrap;connectable=0;strokeColor=inherit;overflow=hidden;fillColor=none;top=0;left=0;bottom=0;right=0;pointerEvents=1;" vertex="1" parent="5945">
                    <mxGeometry width="30" height="25" as="geometry">
                        <mxRectangle width="30" height="25" as="alternateBounds"/>
                    </mxGeometry>
                </mxCell>
                <mxCell id="5947" value="" style="shape=partialRectangle;html=1;whiteSpace=wrap;connectable=0;strokeColor=inherit;overflow=hidden;fillColor=none;top=0;left=0;bottom=0;right=0;pointerEvents=1;" vertex="1" parent="5945">
                    <mxGeometry x="30" width="30" height="25" as="geometry">
                        <mxRectangle width="30" height="25" as="alternateBounds"/>
                    </mxGeometry>
                </mxCell>
                <mxCell id="5948" value="" style="shape=partialRectangle;html=1;whiteSpace=wrap;connectable=0;strokeColor=inherit;overflow=hidden;fillColor=none;top=0;left=0;bottom=0;right=0;pointerEvents=1;" vertex="1" parent="5945">
                    <mxGeometry x="60" width="30" height="25" as="geometry">
                        <mxRectangle width="30" height="25" as="alternateBounds"/>
                    </mxGeometry>
                </mxCell>
                <mxCell id="5949" value="" style="shape=partialRectangle;html=1;whiteSpace=wrap;connectable=0;strokeColor=inherit;overflow=hidden;fillColor=none;top=0;left=0;bottom=0;right=0;pointerEvents=1;" vertex="1" parent="5945">
                    <mxGeometry x="90" width="30" height="25" as="geometry">
                        <mxRectangle width="30" height="25" as="alternateBounds"/>
                    </mxGeometry>
                </mxCell>
                <mxCell id="5950" value="&lt;font face=&quot;Helvetica&quot;&gt;CPU cores&lt;br&gt;&lt;/font&gt;" style="text;html=1;strokeColor=none;fillColor=none;align=center;verticalAlign=middle;whiteSpace=wrap;rounded=0;fontSize=17;fontColor=#FFFFFF;" vertex="1" parent="5936">
                    <mxGeometry x="11" y="34" width="119" height="48" as="geometry"/>
                </mxCell>
                <mxCell id="5951" value="&lt;font face=&quot;Helvetica&quot;&gt;CPU&lt;br&gt;&lt;/font&gt;" style="text;html=1;strokeColor=none;fillColor=none;align=center;verticalAlign=middle;whiteSpace=wrap;rounded=0;fontSize=17;fontColor=#FFFFFF;" vertex="1" parent="5936">
                    <mxGeometry y="7" width="135" height="27" as="geometry"/>
                </mxCell>
                <mxCell id="LV0FwBpydXXZrUbya0PG-5970" value="&lt;font face=&quot;Helvetica&quot;&gt;GPU cores&lt;br&gt;&lt;/font&gt;" style="text;html=1;strokeColor=none;fillColor=none;align=center;verticalAlign=middle;whiteSpace=wrap;rounded=0;fontSize=17;fontColor=#FFFFFF;" parent="1" vertex="1">
                    <mxGeometry x="230" y="73" width="120" height="50" as="geometry"/>
                </mxCell>
                <mxCell id="6129" style="edgeStyle=none;html=1;entryX=0.5;entryY=1;entryDx=0;entryDy=0;strokeWidth=2;startArrow=classic;startFill=1;strokeColor=#FFFFFF;fontColor=#FFFFFF;" edge="1" parent="1" target="5938">
                    <mxGeometry relative="1" as="geometry">
                        <mxPoint x="481" y="170" as="sourcePoint"/>
                    </mxGeometry>
                </mxCell>
                <mxCell id="6130" style="edgeStyle=none;html=1;strokeColor=#FFFFFF;strokeWidth=2;startArrow=classic;startFill=1;entryX=0.5;entryY=1;entryDx=0;entryDy=0;fontColor=#FFFFFF;" edge="1" parent="1" target="5952">
                    <mxGeometry relative="1" as="geometry">
                        <mxPoint x="635" y="170" as="sourcePoint"/>
                    </mxGeometry>
                </mxCell>
            </root>
        </mxGraphModel>
    </diagram>
</mxfile>